<?xml version="1.0" encoding="UTF-8" standalone="no"?>
<!DOCTYPE svg PUBLIC "-//W3C//DTD SVG 1.1//EN"
 "http://www.w3.org/Graphics/SVG/1.1/DTD/svg11.dtd">
<!-- Generated by graphviz version 2.43.0 (0)
 -->
<!-- Title: sim::Node Pages: 1 -->
<svg width="452pt" height="667pt"
 viewBox="0.00 0.00 452.00 667.00" xmlns="http://www.w3.org/2000/svg" xmlns:xlink="http://www.w3.org/1999/xlink">
<g id="graph0" class="graph" transform="scale(1 1) rotate(0) translate(4 663)">
<title>sim::Node</title>
<!-- Node1 -->
<g id="Node000001" class="node">
<title>Node1</title>
<g id="a_Node000001"><a xlink:title="仿真系统中的基础节点类">
<polygon fill="#999999" stroke="transparent" points="297,-659 147,-659 147,-265 297,-265 297,-659"/>
<text text-anchor="start" x="197" y="-647" font-family="Helvetica,sans-Serif" font-size="10.00">sim::Node</text>
<text text-anchor="start" x="151" y="-632" font-family="Helvetica,sans-Serif" font-size="10.00">#</text>
<text text-anchor="start" x="164" y="-632" font-family="Helvetica,sans-Serif" font-size="10.00">p_state_</text>
<text text-anchor="start" x="151" y="-617" font-family="Helvetica,sans-Serif" font-size="10.00">#</text>
<text text-anchor="start" x="164" y="-617" font-family="Helvetica,sans-Serif" font-size="10.00">t_state_</text>
<text text-anchor="start" x="151" y="-602" font-family="Helvetica,sans-Serif" font-size="10.00">#</text>
<text text-anchor="start" x="164" y="-602" font-family="Helvetica,sans-Serif" font-size="10.00">parallelization_method_</text>
<text text-anchor="start" x="151" y="-587" font-family="Helvetica,sans-Serif" font-size="10.00">#</text>
<text text-anchor="start" x="164" y="-587" font-family="Helvetica,sans-Serif" font-size="10.00">thread_pool_</text>
<text text-anchor="start" x="151" y="-572" font-family="Helvetica,sans-Serif" font-size="10.00">+</text>
<text text-anchor="start" x="164" y="-572" font-family="Helvetica,sans-Serif" font-size="10.00">addChild()</text>
<text text-anchor="start" x="151" y="-557" font-family="Helvetica,sans-Serif" font-size="10.00">+</text>
<text text-anchor="start" x="164" y="-557" font-family="Helvetica,sans-Serif" font-size="10.00">addConnection()</text>
<text text-anchor="start" x="151" y="-542" font-family="Helvetica,sans-Serif" font-size="10.00">+</text>
<text text-anchor="start" x="164" y="-542" font-family="Helvetica,sans-Serif" font-size="10.00">addInputPort()</text>
<text text-anchor="start" x="151" y="-527" font-family="Helvetica,sans-Serif" font-size="10.00">+</text>
<text text-anchor="start" x="164" y="-527" font-family="Helvetica,sans-Serif" font-size="10.00">addOutputPort()</text>
<text text-anchor="start" x="151" y="-512" font-family="Helvetica,sans-Serif" font-size="10.00">+</text>
<text text-anchor="start" x="164" y="-512" font-family="Helvetica,sans-Serif" font-size="10.00">addPacket()</text>
<text text-anchor="start" x="151" y="-497" font-family="Helvetica,sans-Serif" font-size="10.00">+</text>
<text text-anchor="start" x="164" y="-497" font-family="Helvetica,sans-Serif" font-size="10.00">clearBuffer()</text>
<text text-anchor="start" x="151" y="-482" font-family="Helvetica,sans-Serif" font-size="10.00">+</text>
<text text-anchor="start" x="164" y="-482" font-family="Helvetica,sans-Serif" font-size="10.00">deserialize()</text>
<text text-anchor="start" x="151" y="-467" font-family="Helvetica,sans-Serif" font-size="10.00">+</text>
<text text-anchor="start" x="164" y="-467" font-family="Helvetica,sans-Serif" font-size="10.00">generateNextPacketID()</text>
<text text-anchor="start" x="151" y="-452" font-family="Helvetica,sans-Serif" font-size="10.00">+</text>
<text text-anchor="start" x="164" y="-452" font-family="Helvetica,sans-Serif" font-size="10.00">getBuffer()</text>
<text text-anchor="start" x="151" y="-437" font-family="Helvetica,sans-Serif" font-size="10.00">+</text>
<text text-anchor="start" x="164" y="-437" font-family="Helvetica,sans-Serif" font-size="10.00">getBufferCapacity()</text>
<text text-anchor="start" x="164" y="-422" font-family="Helvetica,sans-Serif" font-size="10.00">和 21 更多...</text>
<text text-anchor="start" x="151" y="-407" font-family="Helvetica,sans-Serif" font-size="10.00">+</text>
<text text-anchor="start" x="164" y="-407" font-family="Helvetica,sans-Serif" font-size="10.00">setParallelizationMethod()</text>
<text text-anchor="start" x="151" y="-392" font-family="Helvetica,sans-Serif" font-size="10.00">#</text>
<text text-anchor="start" x="164" y="-392" font-family="Helvetica,sans-Serif" font-size="10.00">createNodeFromJson()</text>
<text text-anchor="start" x="151" y="-377" font-family="Helvetica,sans-Serif" font-size="10.00">#</text>
<text text-anchor="start" x="164" y="-377" font-family="Helvetica,sans-Serif" font-size="10.00">createPacketFromJson()</text>
<text text-anchor="start" x="151" y="-362" font-family="Helvetica,sans-Serif" font-size="10.00">#</text>
<text text-anchor="start" x="164" y="-362" font-family="Helvetica,sans-Serif" font-size="10.00">deserializeImpl()</text>
<text text-anchor="start" x="151" y="-347" font-family="Helvetica,sans-Serif" font-size="10.00">#</text>
<text text-anchor="start" x="164" y="-347" font-family="Helvetica,sans-Serif" font-size="10.00">onTick()</text>
<text text-anchor="start" x="151" y="-332" font-family="Helvetica,sans-Serif" font-size="10.00">#</text>
<text text-anchor="start" x="164" y="-332" font-family="Helvetica,sans-Serif" font-size="10.00">onTock()</text>
<text text-anchor="start" x="151" y="-317" font-family="Helvetica,sans-Serif" font-size="10.00">#</text>
<text text-anchor="start" x="164" y="-317" font-family="Helvetica,sans-Serif" font-size="10.00">serializeImpl()</text>
<text text-anchor="start" x="153.5" y="-302" font-family="Helvetica,sans-Serif" font-size="10.00">&#45;</text>
<text text-anchor="start" x="164" y="-302" font-family="Helvetica,sans-Serif" font-size="10.00">simulateFastest()</text>
<text text-anchor="start" x="153.5" y="-287" font-family="Helvetica,sans-Serif" font-size="10.00">&#45;</text>
<text text-anchor="start" x="164" y="-287" font-family="Helvetica,sans-Serif" font-size="10.00">simulateStep()</text>
<text text-anchor="start" x="153.5" y="-272" font-family="Helvetica,sans-Serif" font-size="10.00">&#45;</text>
<text text-anchor="start" x="164" y="-272" font-family="Helvetica,sans-Serif" font-size="10.00">simulateTrace()</text>
<polygon fill="#666666" stroke="#666666" points="147,-642 147,-642 297,-642 297,-642 147,-642"/>
<polygon fill="#666666" stroke="#666666" points="147,-582 147,-582 162,-582 162,-582 147,-582"/>
<polygon fill="#666666" stroke="#666666" points="162,-582 162,-582 297,-582 297,-582 162,-582"/>
<polygon fill="none" stroke="#666666" points="147,-265 147,-659 297,-659 297,-265 147,-265"/>
</a>
</g>
</g>
<!-- Node2 -->
<g id="Node000002" class="node">
<title>Node2</title>
<g id="a_Node000002"><a xlink:href="classsim_1_1ConsumerNode.html" target="_top" xlink:title="消费者节点类">
<polygon fill="white" stroke="transparent" points="136,-229 0,-229 0,0 136,0 136,-229"/>
<text text-anchor="start" x="18" y="-216.5" font-family="Helvetica,sans-Serif" font-size="10.00">sim::ConsumerNode</text>
<text text-anchor="start" x="6.5" y="-201.5" font-family="Helvetica,sans-Serif" font-size="10.00">&#45;</text>
<text text-anchor="start" x="17" y="-201.5" font-family="Helvetica,sans-Serif" font-size="10.00">can_consume_</text>
<text text-anchor="start" x="6.5" y="-186.5" font-family="Helvetica,sans-Serif" font-size="10.00">&#45;</text>
<text text-anchor="start" x="17" y="-186.5" font-family="Helvetica,sans-Serif" font-size="10.00">consumed_count_</text>
<text text-anchor="start" x="6.5" y="-171.5" font-family="Helvetica,sans-Serif" font-size="10.00">&#45;</text>
<text text-anchor="start" x="17" y="-171.5" font-family="Helvetica,sans-Serif" font-size="10.00">name_</text>
<text text-anchor="start" x="4" y="-156.5" font-family="Helvetica,sans-Serif" font-size="10.00">+</text>
<text text-anchor="start" x="17" y="-156.5" font-family="Helvetica,sans-Serif" font-size="10.00">ConsumerNode()</text>
<text text-anchor="start" x="4" y="-141.5" font-family="Helvetica,sans-Serif" font-size="10.00">+</text>
<text text-anchor="start" x="17" y="-141.5" font-family="Helvetica,sans-Serif" font-size="10.00">getConsumedCount()</text>
<text text-anchor="start" x="4" y="-126.5" font-family="Helvetica,sans-Serif" font-size="10.00">+</text>
<text text-anchor="start" x="17" y="-126.5" font-family="Helvetica,sans-Serif" font-size="10.00">getName()</text>
<text text-anchor="start" x="4" y="-111.5" font-family="Helvetica,sans-Serif" font-size="10.00">+</text>
<text text-anchor="start" x="17" y="-111.5" font-family="Helvetica,sans-Serif" font-size="10.00">getTypeID()</text>
<text text-anchor="start" x="4" y="-96.5" font-family="Helvetica,sans-Serif" font-size="10.00">+</text>
<text text-anchor="start" x="17" y="-96.5" font-family="Helvetica,sans-Serif" font-size="10.00">REGISTER_TYPE()</text>
<text text-anchor="start" x="4" y="-81.5" font-family="Helvetica,sans-Serif" font-size="10.00">#</text>
<text text-anchor="start" x="17" y="-81.5" font-family="Helvetica,sans-Serif" font-size="10.00">deserializeImpl()</text>
<text text-anchor="start" x="4" y="-66.5" font-family="Helvetica,sans-Serif" font-size="10.00">#</text>
<text text-anchor="start" x="17" y="-66.5" font-family="Helvetica,sans-Serif" font-size="10.00">onTick()</text>
<text text-anchor="start" x="4" y="-51.5" font-family="Helvetica,sans-Serif" font-size="10.00">#</text>
<text text-anchor="start" x="17" y="-51.5" font-family="Helvetica,sans-Serif" font-size="10.00">onTock()</text>
<text text-anchor="start" x="4" y="-36.5" font-family="Helvetica,sans-Serif" font-size="10.00">#</text>
<text text-anchor="start" x="17" y="-36.5" font-family="Helvetica,sans-Serif" font-size="10.00">serializeImpl()</text>
<text text-anchor="start" x="6.5" y="-21.5" font-family="Helvetica,sans-Serif" font-size="10.00">&#45;</text>
<text text-anchor="start" x="17" y="-21.5" font-family="Helvetica,sans-Serif" font-size="10.00">createNodeFromJson()</text>
<text text-anchor="start" x="6.5" y="-6.5" font-family="Helvetica,sans-Serif" font-size="10.00">&#45;</text>
<text text-anchor="start" x="17" y="-6.5" font-family="Helvetica,sans-Serif" font-size="10.00">createPacketFromJson()</text>
<polygon fill="#666666" stroke="#666666" points="0,-211.5 0,-211.5 136,-211.5 136,-211.5 0,-211.5"/>
<polygon fill="#666666" stroke="#666666" points="0,-166.5 0,-166.5 15,-166.5 15,-166.5 0,-166.5"/>
<polygon fill="#666666" stroke="#666666" points="15,-166.5 15,-166.5 136,-166.5 136,-166.5 15,-166.5"/>
<polygon fill="none" stroke="#666666" points="0,0 0,-229 136,-229 136,0 0,0"/>
</a>
</g>
</g>
<!-- Node1&#45;&gt;Node2 -->
<g id="edge1_Node000001_Node000002" class="edge">
<title>Node1&#45;&gt;Node2</title>
<g id="a_edge1_Node000001_Node000002"><a xlink:title=" ">
<path fill="none" stroke="#63b8ff" d="M142.77,-283.26C134.6,-264.92 126.47,-246.67 118.73,-229.31"/>
<polygon fill="none" stroke="#63b8ff" points="139.65,-284.84 146.92,-292.55 146.04,-281.99 139.65,-284.84"/>
</a>
</g>
</g>
<!-- Node3 -->
<g id="Node000003" class="node">
<title>Node3</title>
<g id="a_Node000003"><a xlink:href="classsim_1_1Network.html" target="_top" xlink:title="网络节点类，作为仿真系统的根节点">
<polygon fill="white" stroke="transparent" points="290,-199 154,-199 154,-30 290,-30 290,-199"/>
<text text-anchor="start" x="189" y="-186.5" font-family="Helvetica,sans-Serif" font-size="10.00">sim::Network</text>
<text text-anchor="start" x="220" y="-171.5" font-family="Helvetica,sans-Serif" font-size="10.00"> </text>
<text text-anchor="start" x="158" y="-156.5" font-family="Helvetica,sans-Serif" font-size="10.00">+</text>
<text text-anchor="start" x="171" y="-156.5" font-family="Helvetica,sans-Serif" font-size="10.00">getTypeID()</text>
<text text-anchor="start" x="158" y="-141.5" font-family="Helvetica,sans-Serif" font-size="10.00">+</text>
<text text-anchor="start" x="171" y="-141.5" font-family="Helvetica,sans-Serif" font-size="10.00">loadFromJson()</text>
<text text-anchor="start" x="158" y="-126.5" font-family="Helvetica,sans-Serif" font-size="10.00">+</text>
<text text-anchor="start" x="171" y="-126.5" font-family="Helvetica,sans-Serif" font-size="10.00">Network()</text>
<text text-anchor="start" x="158" y="-111.5" font-family="Helvetica,sans-Serif" font-size="10.00">+</text>
<text text-anchor="start" x="171" y="-111.5" font-family="Helvetica,sans-Serif" font-size="10.00">REGISTER_TYPE()</text>
<text text-anchor="start" x="158" y="-96.5" font-family="Helvetica,sans-Serif" font-size="10.00">#</text>
<text text-anchor="start" x="171" y="-96.5" font-family="Helvetica,sans-Serif" font-size="10.00">deserializeImpl()</text>
<text text-anchor="start" x="158" y="-81.5" font-family="Helvetica,sans-Serif" font-size="10.00">#</text>
<text text-anchor="start" x="171" y="-81.5" font-family="Helvetica,sans-Serif" font-size="10.00">onTick()</text>
<text text-anchor="start" x="158" y="-66.5" font-family="Helvetica,sans-Serif" font-size="10.00">#</text>
<text text-anchor="start" x="171" y="-66.5" font-family="Helvetica,sans-Serif" font-size="10.00">onTock()</text>
<text text-anchor="start" x="160.5" y="-51.5" font-family="Helvetica,sans-Serif" font-size="10.00">&#45;</text>
<text text-anchor="start" x="171" y="-51.5" font-family="Helvetica,sans-Serif" font-size="10.00">createNodeFromJson()</text>
<text text-anchor="start" x="160.5" y="-36.5" font-family="Helvetica,sans-Serif" font-size="10.00">&#45;</text>
<text text-anchor="start" x="171" y="-36.5" font-family="Helvetica,sans-Serif" font-size="10.00">createPacketFromJson()</text>
<polygon fill="#666666" stroke="#666666" points="154,-181.5 154,-181.5 290,-181.5 290,-181.5 154,-181.5"/>
<polygon fill="#666666" stroke="#666666" points="154,-166.5 154,-166.5 290,-166.5 290,-166.5 154,-166.5"/>
<polygon fill="none" stroke="#666666" points="154,-30 154,-199 290,-199 290,-30 154,-30"/>
</a>
</g>
</g>
<!-- Node1&#45;&gt;Node3 -->
<g id="edge2_Node000001_Node000003" class="edge">
<title>Node1&#45;&gt;Node3</title>
<g id="a_edge2_Node000001_Node000003"><a xlink:title=" ">
<path fill="none" stroke="#63b8ff" d="M222,-254.6C222,-235.21 222,-216.41 222,-199.23"/>
<polygon fill="none" stroke="#63b8ff" points="218.5,-254.78 222,-264.78 225.5,-254.78 218.5,-254.78"/>
</a>
</g>
</g>
<!-- Node4 -->
<g id="Node000004" class="node">
<title>Node4</title>
<g id="a_Node000004"><a xlink:href="classsim_1_1ProducerNode.html" target="_top" xlink:title="生产者节点类">
<polygon fill="white" stroke="transparent" points="444,-229 308,-229 308,0 444,0 444,-229"/>
<text text-anchor="start" x="329.5" y="-216.5" font-family="Helvetica,sans-Serif" font-size="10.00">sim::ProducerNode</text>
<text text-anchor="start" x="314.5" y="-201.5" font-family="Helvetica,sans-Serif" font-size="10.00">&#45;</text>
<text text-anchor="start" x="325" y="-201.5" font-family="Helvetica,sans-Serif" font-size="10.00">name_</text>
<text text-anchor="start" x="314.5" y="-186.5" font-family="Helvetica,sans-Serif" font-size="10.00">&#45;</text>
<text text-anchor="start" x="325" y="-186.5" font-family="Helvetica,sans-Serif" font-size="10.00">produced_count_</text>
<text text-anchor="start" x="314.5" y="-171.5" font-family="Helvetica,sans-Serif" font-size="10.00">&#45;</text>
<text text-anchor="start" x="325" y="-171.5" font-family="Helvetica,sans-Serif" font-size="10.00">should_produce_</text>
<text text-anchor="start" x="312" y="-156.5" font-family="Helvetica,sans-Serif" font-size="10.00">+</text>
<text text-anchor="start" x="325" y="-156.5" font-family="Helvetica,sans-Serif" font-size="10.00">getName()</text>
<text text-anchor="start" x="312" y="-141.5" font-family="Helvetica,sans-Serif" font-size="10.00">+</text>
<text text-anchor="start" x="325" y="-141.5" font-family="Helvetica,sans-Serif" font-size="10.00">getProducedCount()</text>
<text text-anchor="start" x="312" y="-126.5" font-family="Helvetica,sans-Serif" font-size="10.00">+</text>
<text text-anchor="start" x="325" y="-126.5" font-family="Helvetica,sans-Serif" font-size="10.00">getTypeID()</text>
<text text-anchor="start" x="312" y="-111.5" font-family="Helvetica,sans-Serif" font-size="10.00">+</text>
<text text-anchor="start" x="325" y="-111.5" font-family="Helvetica,sans-Serif" font-size="10.00">ProducerNode()</text>
<text text-anchor="start" x="312" y="-96.5" font-family="Helvetica,sans-Serif" font-size="10.00">+</text>
<text text-anchor="start" x="325" y="-96.5" font-family="Helvetica,sans-Serif" font-size="10.00">REGISTER_TYPE()</text>
<text text-anchor="start" x="312" y="-81.5" font-family="Helvetica,sans-Serif" font-size="10.00">#</text>
<text text-anchor="start" x="325" y="-81.5" font-family="Helvetica,sans-Serif" font-size="10.00">deserializeImpl()</text>
<text text-anchor="start" x="312" y="-66.5" font-family="Helvetica,sans-Serif" font-size="10.00">#</text>
<text text-anchor="start" x="325" y="-66.5" font-family="Helvetica,sans-Serif" font-size="10.00">onTick()</text>
<text text-anchor="start" x="312" y="-51.5" font-family="Helvetica,sans-Serif" font-size="10.00">#</text>
<text text-anchor="start" x="325" y="-51.5" font-family="Helvetica,sans-Serif" font-size="10.00">onTock()</text>
<text text-anchor="start" x="312" y="-36.5" font-family="Helvetica,sans-Serif" font-size="10.00">#</text>
<text text-anchor="start" x="325" y="-36.5" font-family="Helvetica,sans-Serif" font-size="10.00">serializeImpl()</text>
<text text-anchor="start" x="314.5" y="-21.5" font-family="Helvetica,sans-Serif" font-size="10.00">&#45;</text>
<text text-anchor="start" x="325" y="-21.5" font-family="Helvetica,sans-Serif" font-size="10.00">createNodeFromJson()</text>
<text text-anchor="start" x="314.5" y="-6.5" font-family="Helvetica,sans-Serif" font-size="10.00">&#45;</text>
<text text-anchor="start" x="325" y="-6.5" font-family="Helvetica,sans-Serif" font-size="10.00">createPacketFromJson()</text>
<polygon fill="#666666" stroke="#666666" points="308,-211.5 308,-211.5 444,-211.5 444,-211.5 308,-211.5"/>
<polygon fill="#666666" stroke="#666666" points="308,-166.5 308,-166.5 323,-166.5 323,-166.5 308,-166.5"/>
<polygon fill="#666666" stroke="#666666" points="323,-166.5 323,-166.5 444,-166.5 444,-166.5 323,-166.5"/>
<polygon fill="none" stroke="#666666" points="308,0 308,-229 444,-229 444,0 308,0"/>
</a>
</g>
</g>
<!-- Node1&#45;&gt;Node4 -->
<g id="edge3_Node000001_Node000004" class="edge">
<title>Node1&#45;&gt;Node4</title>
<g id="a_edge3_Node000001_Node000004"><a xlink:title=" ">
<path fill="none" stroke="#63b8ff" d="M301.23,-283.26C309.4,-264.92 317.53,-246.67 325.27,-229.31"/>
<polygon fill="none" stroke="#63b8ff" points="297.96,-281.99 297.08,-292.55 304.35,-284.84 297.96,-281.99"/>
</a>
</g>
</g>
</g>
</svg>
