<?xml version="1.0" encoding="UTF-8" standalone="no"?>
<!DOCTYPE svg PUBLIC "-//W3C//DTD SVG 1.1//EN"
 "http://www.w3.org/Graphics/SVG/1.1/DTD/svg11.dtd">
<!-- Generated by graphviz version 2.40.1 (20161225.0304)
 -->
<!-- Title: sim::InputPort Pages: 1 -->
<svg width="355pt" height="741pt"
 viewBox="0.00 0.00 355.00 741.00" xmlns="http://www.w3.org/2000/svg" xmlns:xlink="http://www.w3.org/1999/xlink">
<g id="graph0" class="graph" transform="scale(1 1) rotate(0) translate(4 737)">
<title>sim::InputPort</title>
<polygon fill="#ffffff" stroke="transparent" points="-4,4 -4,-737 351,-737 351,4 -4,4"/>
<!-- Node2 -->
<g id="node1" class="node">
<title>Node2</title>
<polygon fill="#bfbfbf" stroke="#000000" points="53.5,-.5 53.5,-101.5 156.5,-101.5 156.5,-.5 53.5,-.5"/>
<text text-anchor="middle" x="105" y="-89.5" font-family="Helvetica,sans-Serif" font-size="10.00" fill="#000000">sim::InputPort</text>
<polyline fill="none" stroke="#000000" points="53.5,-82.5 156.5,-82.5 "/>
<text text-anchor="middle" x="105" y="-70.5" font-family="Helvetica,sans-Serif" font-size="10.00" fill="#000000"> </text>
<polyline fill="none" stroke="#000000" points="53.5,-63.5 156.5,-63.5 "/>
<text text-anchor="start" x="61.5" y="-51.5" font-family="Helvetica,sans-Serif" font-size="10.00" fill="#000000">+ isValid()</text>
<text text-anchor="start" x="61.5" y="-40.5" font-family="Helvetica,sans-Serif" font-size="10.00" fill="#000000">+ peekPacket()</text>
<text text-anchor="start" x="61.5" y="-29.5" font-family="Helvetica,sans-Serif" font-size="10.00" fill="#000000">+ popPacket()</text>
<text text-anchor="start" x="61.5" y="-18.5" font-family="Helvetica,sans-Serif" font-size="10.00" fill="#000000">+ receivePacket()</text>
<text text-anchor="start" x="61.5" y="-7.5" font-family="Helvetica,sans-Serif" font-size="10.00" fill="#000000"># onTick()</text>
</g>
<!-- Node3 -->
<g id="node2" class="node">
<title>Node3</title>
<g id="a_node2"><a xlink:href="classsim_1_1Port.html" target="_top" xlink:title="端口基类，提供数据包传输的基本功能 ">
<polygon fill="#ffffff" stroke="#000000" points="40.5,-139.5 40.5,-372.5 169.5,-372.5 169.5,-139.5 40.5,-139.5"/>
<text text-anchor="middle" x="105" y="-360.5" font-family="Helvetica,sans-Serif" font-size="10.00" fill="#000000">sim::Port</text>
<polyline fill="none" stroke="#000000" points="40.5,-353.5 169.5,-353.5 "/>
<text text-anchor="middle" x="105" y="-341.5" font-family="Helvetica,sans-Serif" font-size="10.00" fill="#000000"> </text>
<polyline fill="none" stroke="#000000" points="40.5,-334.5 169.5,-334.5 "/>
<text text-anchor="start" x="48.5" y="-322.5" font-family="Helvetica,sans-Serif" font-size="10.00" fill="#000000">+ canAcceptPacket()</text>
<text text-anchor="start" x="48.5" y="-311.5" font-family="Helvetica,sans-Serif" font-size="10.00" fill="#000000">+ deserialize()</text>
<text text-anchor="start" x="48.5" y="-300.5" font-family="Helvetica,sans-Serif" font-size="10.00" fill="#000000">+ getAcceptedTypeID()</text>
<text text-anchor="start" x="48.5" y="-289.5" font-family="Helvetica,sans-Serif" font-size="10.00" fill="#000000">+ getCapacity()</text>
<text text-anchor="start" x="48.5" y="-278.5" font-family="Helvetica,sans-Serif" font-size="10.00" fill="#000000">+ getName()</text>
<text text-anchor="start" x="48.5" y="-267.5" font-family="Helvetica,sans-Serif" font-size="10.00" fill="#000000">+ getTickTock()</text>
<text text-anchor="start" x="48.5" y="-256.5" font-family="Helvetica,sans-Serif" font-size="10.00" fill="#000000">+ hasCapacity()</text>
<text text-anchor="start" x="48.5" y="-245.5" font-family="Helvetica,sans-Serif" font-size="10.00" fill="#000000">+ Port()</text>
<text text-anchor="start" x="48.5" y="-234.5" font-family="Helvetica,sans-Serif" font-size="10.00" fill="#000000">+ serialize()</text>
<text text-anchor="start" x="48.5" y="-223.5" font-family="Helvetica,sans-Serif" font-size="10.00" fill="#000000">+ size()</text>
<text text-anchor="start" x="48.5" y="-212.5" font-family="Helvetica,sans-Serif" font-size="10.00" fill="#000000">+ tick()</text>
<text text-anchor="start" x="48.5" y="-201.5" font-family="Helvetica,sans-Serif" font-size="10.00" fill="#000000">+ tock()</text>
<text text-anchor="start" x="48.5" y="-190.5" font-family="Helvetica,sans-Serif" font-size="10.00" fill="#000000">+ ~Port()</text>
<text text-anchor="start" x="48.5" y="-179.5" font-family="Helvetica,sans-Serif" font-size="10.00" fill="#000000"># deserializeImpl()</text>
<text text-anchor="start" x="48.5" y="-168.5" font-family="Helvetica,sans-Serif" font-size="10.00" fill="#000000"># onTick()</text>
<text text-anchor="start" x="48.5" y="-157.5" font-family="Helvetica,sans-Serif" font-size="10.00" fill="#000000"># onTock()</text>
<text text-anchor="start" x="48.5" y="-146.5" font-family="Helvetica,sans-Serif" font-size="10.00" fill="#000000"># serializeImpl()</text>
</a>
</g>
</g>
<!-- Node3&#45;&gt;Node2 -->
<g id="edge1" class="edge">
<title>Node3&#45;&gt;Node2</title>
<path fill="none" stroke="#191970" d="M105,-129.3249C105,-119.7218 105,-110.4188 105,-101.7801"/>
<polygon fill="none" stroke="#191970" points="101.5001,-129.4258 105,-139.4259 108.5001,-129.4259 101.5001,-129.4258"/>
</g>
<!-- Node4 -->
<g id="node3" class="node">
<title>Node4</title>
<g id="a_node3"><a xlink:href="structsim_1_1Port_1_1TransientState.html" target="_top" xlink:title="端口的临时状态结构 ">
<polygon fill="#ffffff" stroke="#000000" points="0,-437 0,-494 136,-494 136,-437 0,-437"/>
<text text-anchor="middle" x="68" y="-482" font-family="Helvetica,sans-Serif" font-size="10.00" fill="#000000">sim::Port::TransientState</text>
<polyline fill="none" stroke="#000000" points="0,-475 136,-475 "/>
<text text-anchor="start" x="8" y="-463" font-family="Helvetica,sans-Serif" font-size="10.00" fill="#000000">+ can_update</text>
<polyline fill="none" stroke="#000000" points="0,-456 136,-456 "/>
<text text-anchor="middle" x="68" y="-444" font-family="Helvetica,sans-Serif" font-size="10.00" fill="#000000"> </text>
</a>
</g>
</g>
<!-- Node4&#45;&gt;Node3 -->
<g id="edge2" class="edge">
<title>Node4&#45;&gt;Node3</title>
<path fill="none" stroke="#404040" d="M73.0671,-436.8092C75.5866,-422.5434 78.8273,-404.194 82.2748,-384.6737"/>
<polygon fill="none" stroke="#404040" points="82.2967,-384.5494 79.4012,-377.9452 84.3838,-372.7323 87.2793,-379.3366 82.2967,-384.5494"/>
<text text-anchor="middle" x="107.5" y="-394" font-family="Helvetica,sans-Serif" font-size="10.00" fill="#000000"> #t_state_</text>
</g>
<!-- Node5 -->
<g id="node4" class="node">
<title>Node5</title>
<g id="a_node4"><a xlink:href="structsim_1_1Port_1_1PersistentState.html" target="_top" xlink:title="端口的持久状态结构 ">
<polygon fill="#ffffff" stroke="#000000" points="154,-420.5 154,-510.5 294,-510.5 294,-420.5 154,-420.5"/>
<text text-anchor="middle" x="224" y="-498.5" font-family="Helvetica,sans-Serif" font-size="10.00" fill="#000000">sim::Port::PersistentState</text>
<polyline fill="none" stroke="#000000" points="154,-491.5 294,-491.5 "/>
<text text-anchor="start" x="162" y="-479.5" font-family="Helvetica,sans-Serif" font-size="10.00" fill="#000000">+ accepted_type_id</text>
<text text-anchor="start" x="162" y="-468.5" font-family="Helvetica,sans-Serif" font-size="10.00" fill="#000000">+ capacity</text>
<text text-anchor="start" x="162" y="-457.5" font-family="Helvetica,sans-Serif" font-size="10.00" fill="#000000">+ tick_tock</text>
<polyline fill="none" stroke="#000000" points="154,-450.5 294,-450.5 "/>
<text text-anchor="start" x="162" y="-438.5" font-family="Helvetica,sans-Serif" font-size="10.00" fill="#000000">+ deserialize()</text>
<text text-anchor="start" x="162" y="-427.5" font-family="Helvetica,sans-Serif" font-size="10.00" fill="#000000">+ serialize()</text>
</a>
</g>
</g>
<!-- Node5&#45;&gt;Node3 -->
<g id="edge3" class="edge">
<title>Node5&#45;&gt;Node3</title>
<path fill="none" stroke="#404040" d="M198.3253,-420.2995C191.5194,-408.3178 183.8294,-394.7794 175.8568,-380.7437"/>
<polygon fill="none" stroke="#404040" points="175.6419,-380.3653 169.2004,-377.1238 169.715,-369.9311 176.1565,-373.1726 175.6419,-380.3653"/>
<text text-anchor="middle" x="212.5" y="-394" font-family="Helvetica,sans-Serif" font-size="10.00" fill="#000000"> #p_state_</text>
</g>
<!-- Node6 -->
<g id="node5" class="node">
<title>Node6</title>
<polygon fill="#ffffff" stroke="#bfbfbf" points="110,-558.5 110,-626.5 244,-626.5 244,-558.5 110,-558.5"/>
<text text-anchor="start" x="118" y="-614.5" font-family="Helvetica,sans-Serif" font-size="10.00" fill="#000000">std::vector&lt; std::shared</text>
<text text-anchor="middle" x="177" y="-603.5" font-family="Helvetica,sans-Serif" font-size="10.00" fill="#000000">_ptr&lt; sim::Packet &gt; &gt;</text>
<polyline fill="none" stroke="#bfbfbf" points="110,-596.5 244,-596.5 "/>
<text text-anchor="start" x="118" y="-584.5" font-family="Helvetica,sans-Serif" font-size="10.00" fill="#000000">+ elements</text>
<polyline fill="none" stroke="#bfbfbf" points="110,-577.5 244,-577.5 "/>
<text text-anchor="middle" x="177" y="-565.5" font-family="Helvetica,sans-Serif" font-size="10.00" fill="#000000"> </text>
</g>
<!-- Node6&#45;&gt;Node5 -->
<g id="edge4" class="edge">
<title>Node6&#45;&gt;Node5</title>
<path fill="none" stroke="#404040" d="M189.5951,-558.4663C193.7588,-547.2156 198.5093,-534.3791 203.1232,-521.9117"/>
<polygon fill="none" stroke="#404040" points="203.1364,-521.8759 201.4675,-514.8606 207.3014,-510.6219 208.9702,-517.6372 203.1364,-521.8759"/>
<text text-anchor="middle" x="225.5" y="-532" font-family="Helvetica,sans-Serif" font-size="10.00" fill="#000000"> +packets</text>
</g>
<!-- Node7 -->
<g id="node6" class="node">
<title>Node7</title>
<g id="a_node6"><a xlink:title="STL class ">
<polygon fill="#ffffff" stroke="#bfbfbf" points="262.5,-564 262.5,-621 327.5,-621 327.5,-564 262.5,-564"/>
<text text-anchor="middle" x="295" y="-609" font-family="Helvetica,sans-Serif" font-size="10.00" fill="#000000">std::string</text>
<polyline fill="none" stroke="#bfbfbf" points="262.5,-602 327.5,-602 "/>
<text text-anchor="middle" x="295" y="-590" font-family="Helvetica,sans-Serif" font-size="10.00" fill="#000000"> </text>
<polyline fill="none" stroke="#bfbfbf" points="262.5,-583 327.5,-583 "/>
<text text-anchor="middle" x="295" y="-571" font-family="Helvetica,sans-Serif" font-size="10.00" fill="#000000"> </text>
</a>
</g>
</g>
<!-- Node7&#45;&gt;Node5 -->
<g id="edge5" class="edge">
<title>Node7&#45;&gt;Node5</title>
<path fill="none" stroke="#404040" d="M279.0662,-563.9987C272.0257,-551.4051 263.492,-536.1405 255.2659,-521.4263"/>
<polygon fill="none" stroke="#404040" points="255.2119,-521.3297 248.7926,-518.0445 249.3562,-510.8554 255.7755,-514.1407 255.2119,-521.3297"/>
<text text-anchor="middle" x="283" y="-532" font-family="Helvetica,sans-Serif" font-size="10.00" fill="#000000"> +name</text>
</g>
<!-- Node8 -->
<g id="node7" class="node">
<title>Node8</title>
<g id="a_node7"><a xlink:title="STL class ">
<polygon fill="#ffffff" stroke="#bfbfbf" points="243,-664.5 243,-732.5 347,-732.5 347,-664.5 243,-664.5"/>
<text text-anchor="start" x="251" y="-720.5" font-family="Helvetica,sans-Serif" font-size="10.00" fill="#000000">std::basic_string&lt;</text>
<text text-anchor="middle" x="295" y="-709.5" font-family="Helvetica,sans-Serif" font-size="10.00" fill="#000000"> char &gt;</text>
<polyline fill="none" stroke="#bfbfbf" points="243,-702.5 347,-702.5 "/>
<text text-anchor="middle" x="295" y="-690.5" font-family="Helvetica,sans-Serif" font-size="10.00" fill="#000000"> </text>
<polyline fill="none" stroke="#bfbfbf" points="243,-683.5 347,-683.5 "/>
<text text-anchor="middle" x="295" y="-671.5" font-family="Helvetica,sans-Serif" font-size="10.00" fill="#000000"> </text>
</a>
</g>
</g>
<!-- Node8&#45;&gt;Node7 -->
<g id="edge6" class="edge">
<title>Node8&#45;&gt;Node7</title>
<path fill="none" stroke="#191970" d="M295,-654.3199C295,-643.1388 295,-631.4189 295,-621.2266"/>
<polygon fill="none" stroke="#191970" points="291.5001,-654.3774 295,-664.3775 298.5001,-654.3775 291.5001,-654.3774"/>
</g>
</g>
</svg>
