<?xml version="1.0" encoding="UTF-8" standalone="no"?>
<!DOCTYPE svg PUBLIC "-//W3C//DTD SVG 1.1//EN"
 "http://www.w3.org/Graphics/SVG/1.1/DTD/svg11.dtd">
<!-- Generated by graphviz version 2.43.0 (0)
 -->
<!-- Title: src/sim/include/packet.h Pages: 1 -->
<svg width="308pt" height="324pt"
 viewBox="0.00 0.00 308.25 324.00" xmlns="http://www.w3.org/2000/svg" xmlns:xlink="http://www.w3.org/1999/xlink">
<g id="graph0" class="graph" transform="scale(1 1) rotate(0) translate(4 320)">
<title>src/sim/include/packet.h</title>
<!-- Node1 -->
<g id="Node000001" class="node">
<title>Node1</title>
<g id="a_Node000001"><a xlink:title="定义了仿真系统中的数据包类型">
<polygon fill="#999999" stroke="#666666" points="210.25,-316 76.25,-316 76.25,-297 210.25,-297 210.25,-316"/>
<text text-anchor="middle" x="143.25" y="-304" font-family="Helvetica,sans-Serif" font-size="10.00">src/sim/include/packet.h</text>
</a>
</g>
</g>
<!-- Node2 -->
<g id="Node000002" class="node">
<title>Node2</title>
<g id="a_Node000002"><a xlink:href="node_8h.html" target="_top" xlink:title="定义了仿真系统中的基础节点类">
<polygon fill="white" stroke="#666666" points="180.25,-206 54.25,-206 54.25,-187 180.25,-187 180.25,-206"/>
<text text-anchor="middle" x="117.25" y="-194" font-family="Helvetica,sans-Serif" font-size="10.00">src/sim/include/node.h</text>
</a>
</g>
</g>
<!-- Node1&#45;&gt;Node2 -->
<g id="edge1_Node000001_Node000002" class="edge">
<title>Node1&#45;&gt;Node2</title>
<g id="a_edge1_Node000001_Node000002"><a xlink:title=" ">
<path fill="none" stroke="#63b8ff" d="M109.14,-292.54C95.42,-285.44 81.03,-275.15 73.25,-261 61.89,-240.31 86.95,-218.06 103.72,-206.17"/>
<polygon fill="#63b8ff" stroke="#63b8ff" points="107.91,-295.83 118.44,-296.95 110.91,-289.51 107.91,-295.83"/>
</a>
</g>
</g>
<!-- Node5 -->
<g id="Node000005" class="node">
<title>Node5</title>
<g id="a_Node000005"><a xlink:href="producer__consumer_8h.html" target="_top" xlink:title="定义了仿真系统中的生产者和消费者节点">
<polygon fill="white" stroke="#666666" points="300.25,-96 164.25,-96 164.25,-66 300.25,-66 300.25,-96"/>
<text text-anchor="start" x="172.25" y="-84" font-family="Helvetica,sans-Serif" font-size="10.00">src/sim/include/producer</text>
<text text-anchor="middle" x="232.25" y="-73" font-family="Helvetica,sans-Serif" font-size="10.00">_consumer.h</text>
</a>
</g>
</g>
<!-- Node1&#45;&gt;Node5 -->
<g id="edge10_Node000001_Node000005" class="edge">
<title>Node1&#45;&gt;Node5</title>
<g id="a_edge10_Node000001_Node000005"><a xlink:title=" ">
<path fill="none" stroke="#63b8ff" d="M176.08,-292.44C189.84,-285.26 204.62,-274.92 213.25,-261 246.2,-207.88 239.26,-128.51 234.65,-96.32"/>
<polygon fill="#63b8ff" stroke="#63b8ff" points="174.28,-289.42 166.8,-296.92 177.33,-295.73 174.28,-289.42"/>
</a>
</g>
</g>
<!-- Node7 -->
<g id="Node000007" class="node">
<title>Node7</title>
<g id="a_Node000007"><a xlink:href="port_8h.html" target="_top" xlink:title="定义了仿真系统中的端口系统">
<polygon fill="white" stroke="#666666" points="204.25,-261 82.25,-261 82.25,-242 204.25,-242 204.25,-261"/>
<text text-anchor="middle" x="143.25" y="-249" font-family="Helvetica,sans-Serif" font-size="10.00">src/sim/include/port.h</text>
</a>
</g>
</g>
<!-- Node1&#45;&gt;Node7 -->
<g id="edge8_Node000001_Node000007" class="edge">
<title>Node1&#45;&gt;Node7</title>
<g id="a_edge8_Node000001_Node000007"><a xlink:title=" ">
<path fill="none" stroke="#63b8ff" d="M143.25,-286.66C143.25,-277.93 143.25,-267.99 143.25,-261.09"/>
<polygon fill="#63b8ff" stroke="#63b8ff" points="139.75,-286.75 143.25,-296.75 146.75,-286.75 139.75,-286.75"/>
</a>
</g>
</g>
<!-- Node3 -->
<g id="Node000003" class="node">
<title>Node3</title>
<g id="a_Node000003"><a xlink:href="network_8h.html" target="_top" xlink:title="定义了仿真系统中的网络节点">
<polygon fill="white" stroke="#666666" points="158.25,-151 16.25,-151 16.25,-132 158.25,-132 158.25,-151"/>
<text text-anchor="middle" x="87.25" y="-139" font-family="Helvetica,sans-Serif" font-size="10.00">src/sim/include/network.h</text>
</a>
</g>
</g>
<!-- Node2&#45;&gt;Node3 -->
<g id="edge2_Node000002_Node000003" class="edge">
<title>Node2&#45;&gt;Node3</title>
<g id="a_edge2_Node000002_Node000003"><a xlink:title=" ">
<path fill="none" stroke="#63b8ff" d="M107.24,-177.82C102.15,-168.82 96.19,-158.29 92.12,-151.09"/>
<polygon fill="#63b8ff" stroke="#63b8ff" points="104.33,-179.77 112.3,-186.75 110.42,-176.32 104.33,-179.77"/>
</a>
</g>
</g>
<!-- Node2&#45;&gt;Node5 -->
<g id="edge7_Node000002_Node000005" class="edge">
<title>Node2&#45;&gt;Node5</title>
<g id="a_edge7_Node000002_Node000005"><a xlink:title=" ">
<path fill="none" stroke="#63b8ff" d="M135.24,-180.17C144.92,-171.75 156.94,-161.02 167.25,-151 186.13,-132.65 206.8,-110.28 219.65,-96.09"/>
<polygon fill="#63b8ff" stroke="#63b8ff" points="132.74,-177.71 127.45,-186.89 137.31,-183.01 132.74,-177.71"/>
</a>
</g>
</g>
<!-- Node4 -->
<g id="Node000004" class="node">
<title>Node4</title>
<g id="a_Node000004"><a xlink:href="network__factory_8h.html" target="_top" xlink:title="定义了仿真系统中的网络工厂类">
<polygon fill="white" stroke="#666666" points="175.75,-30 42.75,-30 42.75,0 175.75,0 175.75,-30"/>
<text text-anchor="start" x="50.75" y="-18" font-family="Helvetica,sans-Serif" font-size="10.00">src/sim/include/network</text>
<text text-anchor="middle" x="109.25" y="-7" font-family="Helvetica,sans-Serif" font-size="10.00">_factory.h</text>
</a>
</g>
</g>
<!-- Node3&#45;&gt;Node4 -->
<g id="edge3_Node000003_Node000004" class="edge">
<title>Node3&#45;&gt;Node4</title>
<g id="a_edge3_Node000003_Node000004"><a xlink:title=" ">
<path fill="none" stroke="#63b8ff" d="M45.54,-128.09C30.09,-121.24 14.17,-110.98 5.25,-96 -1.57,-84.54 -1.84,-77.29 5.25,-66 15.97,-48.96 34.3,-37.59 52.62,-30.07"/>
<polygon fill="#63b8ff" stroke="#63b8ff" points="44.46,-131.42 55.04,-131.92 47.08,-124.93 44.46,-131.42"/>
</a>
</g>
</g>
<!-- Node3&#45;&gt;Node5 -->
<g id="edge4_Node000003_Node000005" class="edge">
<title>Node3&#45;&gt;Node5</title>
<g id="a_edge4_Node000003_Node000005"><a xlink:title=" ">
<path fill="none" stroke="#63b8ff" d="M117.72,-128.21C141,-118.82 173.1,-105.87 197.39,-96.06"/>
<polygon fill="#63b8ff" stroke="#63b8ff" points="116.3,-125.01 108.34,-131.99 118.92,-131.5 116.3,-125.01"/>
</a>
</g>
</g>
<!-- Node6 -->
<g id="Node000006" class="node">
<title>Node6</title>
<g id="a_Node000006"><a xlink:href="server_8h.html" target="_top" xlink:title="定义了仿真系统中的HTTP服务器和仿真引擎">
<polygon fill="white" stroke="#666666" points="146.25,-90.5 14.25,-90.5 14.25,-71.5 146.25,-71.5 146.25,-90.5"/>
<text text-anchor="middle" x="80.25" y="-78.5" font-family="Helvetica,sans-Serif" font-size="10.00">src/sim/include/server.h</text>
</a>
</g>
</g>
<!-- Node3&#45;&gt;Node6 -->
<g id="edge6_Node000003_Node000006" class="edge">
<title>Node3&#45;&gt;Node6</title>
<g id="a_edge6_Node000003_Node000006"><a xlink:title=" ">
<path fill="none" stroke="#63b8ff" d="M85,-121.66C83.75,-111.24 82.26,-98.8 81.29,-90.67"/>
<polygon fill="#63b8ff" stroke="#63b8ff" points="81.56,-122.35 86.22,-131.87 88.51,-121.52 81.56,-122.35"/>
</a>
</g>
</g>
<!-- Node5&#45;&gt;Node4 -->
<g id="edge5_Node000005_Node000004" class="edge">
<title>Node5&#45;&gt;Node4</title>
<g id="a_edge5_Node000005_Node000004"><a xlink:title=" ">
<path fill="none" stroke="#63b8ff" d="M196.2,-61.24C177.01,-51.25 153.79,-39.18 136.18,-30.01"/>
<polygon fill="#63b8ff" stroke="#63b8ff" points="194.77,-64.44 205.26,-65.95 198.01,-58.23 194.77,-64.44"/>
</a>
</g>
</g>
<!-- Node7&#45;&gt;Node2 -->
<g id="edge9_Node000007_Node000002" class="edge">
<title>Node7&#45;&gt;Node2</title>
<g id="a_edge9_Node000007_Node000002"><a xlink:title=" ">
<path fill="none" stroke="#63b8ff" d="M134.44,-232.53C130.06,-223.6 124.96,-213.22 121.47,-206.09"/>
<polygon fill="#63b8ff" stroke="#63b8ff" points="131.41,-234.31 138.96,-241.75 137.7,-231.23 131.41,-234.31"/>
</a>
</g>
</g>
</g>
</svg>
