<?xml version="1.0" encoding="UTF-8" standalone="no"?>
<!DOCTYPE svg PUBLIC "-//W3C//DTD SVG 1.1//EN"
 "http://www.w3.org/Graphics/SVG/1.1/DTD/svg11.dtd">
<!-- Generated by graphviz version 2.40.1 (20161225.0304)
 -->
<!-- Title: src/sim/include/port.h Pages: 1 -->
<!--zoomable 196 -->
<svg id="main" version="1.1" xmlns="http://www.w3.org/2000/svg" xmlns:xlink="http://www.w3.org/1999/xlink" xml:space="preserve" onload="init(evt)">
<style type="text/css"><![CDATA[
.edge:hover path { stroke: red; }
.edge:hover polygon { stroke: red; fill: red; }
]]></style>
<script type="text/javascript"><![CDATA[
var edges = document.getElementsByTagName('g');
if (edges && edges.length) {
  for (var i=0;i<edges.length;i++) {
    if (edges[i].id.substr(0,4)=='edge') {
      edges[i].setAttribute('class','edge');
    }
  }
}
]]></script>
        <defs>
                <circle id="rim" cx="0" cy="0" r="7"/>
                <circle id="rim2" cx="0" cy="0" r="3.5"/>
                <g id="zoomPlus">
                        <use xlink:href="#rim" fill="#404040">
                                <set attributeName="fill" to="#808080" begin="zoomplus.mouseover" end="zoomplus.mouseout"/>
                        </use>
                        <path d="M-4,0h8M0,-4v8" fill="none" stroke="white" stroke-width="1.5" pointer-events="none"/>
                </g>
                <g id="zoomMin">
                        <use xlink:href="#rim" fill="#404040">
                                <set attributeName="fill" to="#808080" begin="zoomminus.mouseover" end="zoomminus.mouseout"/>
                        </use>
                        <path d="M-4,0h8" fill="none" stroke="white" stroke-width="1.5" pointer-events="none"/>
                </g>
                <g id="dirArrow">
                        <path fill="none" stroke="white" stroke-width="1.5" d="M0,-3.0v7 M-2.5,-0.5L0,-3.0L2.5,-0.5"/>
                </g>
               <g id="resetDef">
                       <use xlink:href="#rim2" fill="#404040">
                               <set attributeName="fill" to="#808080" begin="reset.mouseover" end="reset.mouseout"/>
                       </use>
               </g>
        </defs>

<script type="text/javascript">
var viewWidth = 548;
var viewHeight = 196;
var sectionId = 'dynsection-0';
</script>
<script xlink:href="svgpan.js"/>
<svg id="graph" class="graph">
<g id="viewport">
<title>src/sim/include/port.h</title>
<polygon fill="#ffffff" stroke="transparent" points="-4,4 -4,-192 544,-192 544,4 -4,4"/>
<!-- Node0 -->
<g id="node1" class="node">
<title>Node0</title>
<polygon fill="#bfbfbf" stroke="#000000" points="315,-168.5 315,-187.5 437,-187.5 437,-168.5 315,-168.5"/>
<text text-anchor="middle" x="376" y="-175.5" font-family="Helvetica,sans-Serif" font-size="10.00" fill="#000000">src/sim/include/port.h</text>
</g>
<!-- Node1 -->
<g id="node2" class="node">
<title>Node1</title>
<g id="a_node2"><a xlink:href="type_8h.html" target="_top" xlink:title="定义了仿真系统中的基础类型系统 ">
<polygon fill="#ffffff" stroke="#000000" points="138.5,-56.5 138.5,-75.5 185.5,-75.5 185.5,-56.5 138.5,-56.5"/>
<text text-anchor="middle" x="162" y="-63.5" font-family="Helvetica,sans-Serif" font-size="10.00" fill="#000000">type.h</text>
</a>
</g>
</g>
<!-- Node0&#45;&gt;Node1 -->
<g id="edge1" class="edge">
<title>Node0&#45;&gt;Node1</title>
<path fill="none" stroke="#191970" d="M334.0903,-168.4212C306.0266,-160.9491 268.8927,-148.9682 239,-132 215.745,-118.7996 192.9818,-98.0325 178.3116,-83.3227"/>
<polygon fill="#191970" stroke="#191970" points="180.5273,-80.5813 171.0424,-75.8603 175.513,-85.4658 180.5273,-80.5813"/>
</g>
<!-- Node3 -->
<g id="node4" class="node">
<title>Node3</title>
<polygon fill="#ffffff" stroke="#bfbfbf" points="0,-.5 0,-19.5 44,-19.5 44,-.5 0,-.5"/>
<text text-anchor="middle" x="22" y="-7.5" font-family="Helvetica,sans-Serif" font-size="10.00" fill="#000000">string</text>
</g>
<!-- Node0&#45;&gt;Node3 -->
<g id="edge16" class="edge">
<title>Node0&#45;&gt;Node3</title>
<path fill="none" stroke="#191970" d="M325.0256,-168.4917C264.5039,-155.3582 162.5243,-127.2629 89,-76 68.8467,-61.9486 49.2378,-41.614 36.4956,-27.2367"/>
<polygon fill="#191970" stroke="#191970" points="39.0294,-24.8162 29.8346,-19.5525 33.74,-29.4013 39.0294,-24.8162"/>
</g>
<!-- Node6 -->
<g id="node7" class="node">
<title>Node6</title>
<polygon fill="#ffffff" stroke="#bfbfbf" points="391,-.5 391,-19.5 449,-19.5 449,-.5 391,-.5"/>
<text text-anchor="middle" x="420" y="-7.5" font-family="Helvetica,sans-Serif" font-size="10.00" fill="#000000">memory</text>
</g>
<!-- Node0&#45;&gt;Node6 -->
<g id="edge14" class="edge">
<title>Node0&#45;&gt;Node6</title>
<path fill="none" stroke="#191970" d="M378.4917,-168.4862C385.4772,-141.8144 405.3565,-65.9117 414.8418,-29.695"/>
<polygon fill="#191970" stroke="#191970" points="418.2782,-30.3884 417.426,-19.8279 411.5066,-28.6148 418.2782,-30.3884"/>
</g>
<!-- Node7 -->
<g id="node8" class="node">
<title>Node7</title>
<polygon fill="#ffffff" stroke="#bfbfbf" points="325.5,-.5 325.5,-19.5 372.5,-19.5 372.5,-.5 325.5,-.5"/>
<text text-anchor="middle" x="349" y="-7.5" font-family="Helvetica,sans-Serif" font-size="10.00" fill="#000000">vector</text>
</g>
<!-- Node0&#45;&gt;Node7 -->
<g id="edge15" class="edge">
<title>Node0&#45;&gt;Node7</title>
<path fill="none" stroke="#191970" d="M375.2599,-168.4417C373.5657,-147.787 368.9284,-97.5028 361,-56 359.3202,-47.2067 356.9095,-37.6067 354.689,-29.4623"/>
<polygon fill="#191970" stroke="#191970" points="358.0421,-28.4572 351.9567,-19.7844 351.3054,-30.3592 358.0421,-28.4572"/>
</g>
<!-- Node8 -->
<g id="node9" class="node">
<title>Node8</title>
<g id="a_node9"><a xlink:href="packet_8h.html" target="_top" xlink:title="定义了仿真系统中的数据包类型 ">
<polygon fill="#ffffff" stroke="#000000" points="248,-112.5 248,-131.5 306,-131.5 306,-112.5 248,-112.5"/>
<text text-anchor="middle" x="277" y="-119.5" font-family="Helvetica,sans-Serif" font-size="10.00" fill="#000000">packet.h</text>
</a>
</g>
</g>
<!-- Node0&#45;&gt;Node8 -->
<g id="edge8" class="edge">
<title>Node0&#45;&gt;Node8</title>
<path fill="none" stroke="#191970" d="M358.7555,-168.2455C343.4239,-159.5731 320.7801,-146.7645 303.2084,-136.825"/>
<polygon fill="#191970" stroke="#191970" points="304.4741,-133.5198 294.0469,-131.6427 301.0276,-139.6126 304.4741,-133.5198"/>
</g>
<!-- Node10 -->
<g id="node11" class="node">
<title>Node10</title>
<polygon fill="#ffffff" stroke="#bfbfbf" points="484,-112.5 484,-131.5 540,-131.5 540,-112.5 484,-112.5"/>
<text text-anchor="middle" x="512" y="-119.5" font-family="Helvetica,sans-Serif" font-size="10.00" fill="#000000">optional</text>
</g>
<!-- Node0&#45;&gt;Node10 -->
<g id="edge17" class="edge">
<title>Node0&#45;&gt;Node10</title>
<path fill="none" stroke="#191970" d="M399.3792,-168.3733C421.5045,-159.2629 454.9134,-145.5062 479.6019,-135.3404"/>
<polygon fill="#191970" stroke="#191970" points="481.0117,-138.5451 488.9258,-131.5011 478.3464,-132.0723 481.0117,-138.5451"/>
</g>
<!-- Node2 -->
<g id="node3" class="node">
<title>Node2</title>
<polygon fill="#ffffff" stroke="#bfbfbf" points="174,-.5 174,-19.5 224,-19.5 224,-.5 174,-.5"/>
<text text-anchor="middle" x="199" y="-7.5" font-family="Helvetica,sans-Serif" font-size="10.00" fill="#000000">cstdint</text>
</g>
<!-- Node1&#45;&gt;Node2 -->
<g id="edge2" class="edge">
<title>Node1&#45;&gt;Node2</title>
<path fill="none" stroke="#191970" d="M168.4449,-56.2455C173.5382,-48.5367 180.7908,-37.5598 186.952,-28.2348"/>
<polygon fill="#191970" stroke="#191970" points="190.0365,-29.9155 192.6289,-19.6427 184.1962,-26.0566 190.0365,-29.9155"/>
</g>
<!-- Node1&#45;&gt;Node3 -->
<g id="edge3" class="edge">
<title>Node1&#45;&gt;Node3</title>
<path fill="none" stroke="#191970" d="M138.2509,-56.5004C114.8696,-47.1478 79.0271,-32.8109 53.3243,-22.5297"/>
<polygon fill="#191970" stroke="#191970" points="54.6016,-19.2711 44.017,-18.8068 52.0018,-25.7704 54.6016,-19.2711"/>
</g>
<!-- Node4 -->
<g id="node5" class="node">
<title>Node4</title>
<polygon fill="#ffffff" stroke="#bfbfbf" points="242.5,-.5 242.5,-19.5 307.5,-19.5 307.5,-.5 242.5,-.5"/>
<text text-anchor="middle" x="275" y="-7.5" font-family="Helvetica,sans-Serif" font-size="10.00" fill="#000000">functional</text>
</g>
<!-- Node1&#45;&gt;Node4 -->
<g id="edge4" class="edge">
<title>Node1&#45;&gt;Node4</title>
<path fill="none" stroke="#191970" d="M181.4254,-56.3733C199.4021,-47.4644 226.3441,-34.1127 246.709,-24.0203"/>
<polygon fill="#191970" stroke="#191970" points="248.4222,-27.0776 255.8281,-19.5011 245.3139,-20.8055 248.4222,-27.0776"/>
</g>
<!-- Node5 -->
<g id="node6" class="node">
<title>Node5</title>
<polygon fill="#ffffff" stroke="#bfbfbf" points="62.5,-.5 62.5,-19.5 155.5,-19.5 155.5,-.5 62.5,-.5"/>
<text text-anchor="middle" x="109" y="-7.5" font-family="Helvetica,sans-Serif" font-size="10.00" fill="#000000">unordered_map</text>
</g>
<!-- Node1&#45;&gt;Node5 -->
<g id="edge5" class="edge">
<title>Node1&#45;&gt;Node5</title>
<path fill="none" stroke="#191970" d="M152.7681,-56.2455C145.1683,-48.2155 134.2123,-36.6394 125.1632,-27.0781"/>
<polygon fill="#191970" stroke="#191970" points="127.542,-24.4998 118.1261,-19.6427 122.4579,-29.3115 127.542,-24.4998"/>
</g>
<!-- Node1&#45;&gt;Node6 -->
<g id="edge6" class="edge">
<title>Node1&#45;&gt;Node6</title>
<path fill="none" stroke="#191970" d="M185.7327,-61.3707C224.3526,-53.7613 303.41,-37.868 380.7375,-19.9795"/>
<polygon fill="#191970" stroke="#191970" points="381.7,-23.3492 390.6466,-17.6738 380.1135,-16.5313 381.7,-23.3492"/>
</g>
<!-- Node1&#45;&gt;Node7 -->
<g id="edge7" class="edge">
<title>Node1&#45;&gt;Node7</title>
<path fill="none" stroke="#191970" d="M185.7524,-58.9369C214.2363,-50.4601 263.6726,-35.7259 315.5081,-20.1401"/>
<polygon fill="#191970" stroke="#191970" points="316.6426,-23.4538 325.2104,-17.2213 314.626,-16.7506 316.6426,-23.4538"/>
</g>
<!-- Node8&#45;&gt;Node1 -->
<g id="edge9" class="edge">
<title>Node8&#45;&gt;Node1</title>
<path fill="none" stroke="#191970" d="M257.2308,-112.3733C238.8531,-103.4241 211.2688,-89.9917 190.5107,-79.8835"/>
<polygon fill="#191970" stroke="#191970" points="192.0343,-76.7325 181.5112,-75.5011 188.9696,-83.026 192.0343,-76.7325"/>
</g>
<!-- Node8&#45;&gt;Node3 -->
<g id="edge11" class="edge">
<title>Node8&#45;&gt;Node3</title>
<path fill="none" stroke="#191970" d="M247.8387,-115.2506C217.4032,-107.6784 168.6751,-94.053 129,-76 97.7108,-61.7628 64.4211,-40.0621 43.4358,-25.4706"/>
<polygon fill="#191970" stroke="#191970" points="45.4279,-22.5927 35.2371,-19.6948 41.3965,-28.3153 45.4279,-22.5927"/>
</g>
<!-- Node8&#45;&gt;Node6 -->
<g id="edge12" class="edge">
<title>Node8&#45;&gt;Node6</title>
<path fill="none" stroke="#191970" d="M299.3075,-112.3505C317.0041,-104.1115 341.8601,-91.2003 361,-76 378.7411,-61.9105 395.6129,-42.1642 406.7344,-27.9469"/>
<polygon fill="#191970" stroke="#191970" points="409.5849,-29.9811 412.8724,-19.9092 404.0215,-25.7326 409.5849,-29.9811"/>
</g>
<!-- Node8&#45;&gt;Node7 -->
<g id="edge13" class="edge">
<title>Node8&#45;&gt;Node7</title>
<path fill="none" stroke="#191970" d="M262.5058,-112.3465C244.9925,-99.4576 219.4594,-75.936 233,-56 237.9365,-48.7319 283.1947,-32.2044 315.6914,-21.0706"/>
<polygon fill="#191970" stroke="#191970" points="316.9648,-24.3345 325.3081,-17.8046 314.7138,-17.7063 316.9648,-24.3345"/>
</g>
<!-- Node9 -->
<g id="node10" class="node">
<title>Node9</title>
<polygon fill="#ffffff" stroke="#bfbfbf" points="242,-56.5 242,-75.5 352,-75.5 352,-56.5 242,-56.5"/>
<text text-anchor="middle" x="297" y="-63.5" font-family="Helvetica,sans-Serif" font-size="10.00" fill="#000000">nlohmann/json.hpp</text>
</g>
<!-- Node8&#45;&gt;Node9 -->
<g id="edge10" class="edge">
<title>Node8&#45;&gt;Node9</title>
<path fill="none" stroke="#191970" d="M280.4837,-112.2455C283.1508,-104.7776 286.9133,-94.2427 290.1737,-85.1137"/>
<polygon fill="#191970" stroke="#191970" points="293.4889,-86.2373 293.5562,-75.6427 286.8967,-83.8829 293.4889,-86.2373"/>
</g>
</g>
</svg>
        <g id="navigator" transform="translate(0 0)" fill="#404254">
                <rect fill="#f2f5e9" fill-opacity="0.5" stroke="#606060" stroke-width=".5" x="0" y="0" width="60" height="60"/>
                <use id="zoomplus" xlink:href="#zoomPlus" x="17" y="9" onmousedown="handleZoom(evt,'in')"/>
                <use id="zoomminus" xlink:href="#zoomMin" x="42" y="9" onmousedown="handleZoom(evt,'out')"/>
                <use id="reset" xlink:href="#resetDef" x="30" y="36" onmousedown="handleReset()"/>
                <g id="arrowUp" xlink:href="#dirArrow" transform="translate(30 24)" onmousedown="handlePan(0,-1)">
                  <use xlink:href="#rim" fill="#404040">
                        <set attributeName="fill" to="#808080" begin="arrowUp.mouseover" end="arrowUp.mouseout"/>
                  </use>
                  <path fill="none" stroke="white" stroke-width="1.5" d="M0,-3.0v7 M-2.5,-0.5L0,-3.0L2.5,-0.5"/>
                </g>
                <g id="arrowRight" xlink:href="#dirArrow" transform="rotate(90) translate(36 -43)" onmousedown="handlePan(1,0)">
                  <use xlink:href="#rim" fill="#404040">
                        <set attributeName="fill" to="#808080" begin="arrowRight.mouseover" end="arrowRight.mouseout"/>
                  </use>
                  <path fill="none" stroke="white" stroke-width="1.5" d="M0,-3.0v7 M-2.5,-0.5L0,-3.0L2.5,-0.5"/>
                </g>
                <g id="arrowDown" xlink:href="#dirArrow" transform="rotate(180) translate(-30 -48)" onmousedown="handlePan(0,1)">
                  <use xlink:href="#rim" fill="#404040">
                        <set attributeName="fill" to="#808080" begin="arrowDown.mouseover" end="arrowDown.mouseout"/>
                  </use>
                  <path fill="none" stroke="white" stroke-width="1.5" d="M0,-3.0v7 M-2.5,-0.5L0,-3.0L2.5,-0.5"/>
                </g>
                <g id="arrowLeft" xlink:href="#dirArrow" transform="rotate(270) translate(-36 17)" onmousedown="handlePan(-1,0)">
                  <use xlink:href="#rim" fill="#404040">
                        <set attributeName="fill" to="#808080" begin="arrowLeft.mouseover" end="arrowLeft.mouseout"/>
                  </use>
                  <path fill="none" stroke="white" stroke-width="1.5" d="M0,-3.0v7 M-2.5,-0.5L0,-3.0L2.5,-0.5"/>
                </g>
        </g>
        <svg viewBox="0 0 15 15" width="100%" height="30px" preserveAspectRatio="xMaxYMin meet">
         <g id="arrow_out" transform="scale(0.3 0.3)">
          <a xlink:href="port_8h__incl_org.svg" target="_base">
           <rect id="button" ry="5" rx="5" y="6" x="6" height="38" width="38"
                fill="#f2f5e9" fill-opacity="0.5" stroke="#606060" stroke-width="1.0"/>
           <path id="arrow"
             d="M 11.500037,31.436501 C 11.940474,20.09759 22.043105,11.32322 32.158766,21.979434 L 37.068811,17.246167 C 37.068811,17.246167 37.088388,32 37.088388,32 L 22.160133,31.978069 C 22.160133,31.978069 26.997745,27.140456 26.997745,27.140456 C 18.528582,18.264221 13.291696,25.230495 11.500037,31.436501 z"
             style="fill:#404040;"/>
          </a>
         </g>
        </svg>
</svg>
