<?xml version="1.0" encoding="UTF-8" standalone="no"?>
<!DOCTYPE svg PUBLIC "-//W3C//DTD SVG 1.1//EN"
 "http://www.w3.org/Graphics/SVG/1.1/DTD/svg11.dtd">
<!-- Generated by graphviz version 2.43.0 (0)
 -->
<!-- Title: sim::InfoPacket Pages: 1 -->
<svg width="217pt" height="534pt"
 viewBox="0.00 0.00 217.00 534.00" xmlns="http://www.w3.org/2000/svg" xmlns:xlink="http://www.w3.org/1999/xlink">
<g id="graph0" class="graph" transform="scale(1 1) rotate(0) translate(4 530)">
<title>sim::InfoPacket</title>
<!-- Node1 -->
<g id="Node000001" class="node">
<title>Node1</title>
<g id="a_Node000001"><a xlink:title="信息数据包类，用于传输字符串信息">
<polygon fill="#999999" stroke="transparent" points="154,-139 48,-139 48,0 154,0 154,-139"/>
<text text-anchor="start" x="63.5" y="-126.5" font-family="Helvetica,sans-Serif" font-size="10.00">sim::InfoPacket</text>
<text text-anchor="start" x="99" y="-111.5" font-family="Helvetica,sans-Serif" font-size="10.00"> </text>
<text text-anchor="start" x="52" y="-96.5" font-family="Helvetica,sans-Serif" font-size="10.00">+</text>
<text text-anchor="start" x="65" y="-96.5" font-family="Helvetica,sans-Serif" font-size="10.00">deserializeImpl()</text>
<text text-anchor="start" x="52" y="-81.5" font-family="Helvetica,sans-Serif" font-size="10.00">+</text>
<text text-anchor="start" x="65" y="-81.5" font-family="Helvetica,sans-Serif" font-size="10.00">getInfo()</text>
<text text-anchor="start" x="52" y="-66.5" font-family="Helvetica,sans-Serif" font-size="10.00">+</text>
<text text-anchor="start" x="65" y="-66.5" font-family="Helvetica,sans-Serif" font-size="10.00">getTypeID()</text>
<text text-anchor="start" x="52" y="-51.5" font-family="Helvetica,sans-Serif" font-size="10.00">+</text>
<text text-anchor="start" x="65" y="-51.5" font-family="Helvetica,sans-Serif" font-size="10.00">InfoPacket()</text>
<text text-anchor="start" x="52" y="-36.5" font-family="Helvetica,sans-Serif" font-size="10.00">+</text>
<text text-anchor="start" x="65" y="-36.5" font-family="Helvetica,sans-Serif" font-size="10.00">REGISTER_TYPE()</text>
<text text-anchor="start" x="52" y="-21.5" font-family="Helvetica,sans-Serif" font-size="10.00">+</text>
<text text-anchor="start" x="65" y="-21.5" font-family="Helvetica,sans-Serif" font-size="10.00">serializeImpl()</text>
<text text-anchor="start" x="52" y="-6.5" font-family="Helvetica,sans-Serif" font-size="10.00">+</text>
<text text-anchor="start" x="65" y="-6.5" font-family="Helvetica,sans-Serif" font-size="10.00">setInfo()</text>
<polygon fill="#666666" stroke="#666666" points="48,-121.5 48,-121.5 154,-121.5 154,-121.5 48,-121.5"/>
<polygon fill="#666666" stroke="#666666" points="48,-106.5 48,-106.5 154,-106.5 154,-106.5 48,-106.5"/>
<polygon fill="none" stroke="#666666" points="48,0 48,-139 154,-139 154,0 48,0"/>
</a>
</g>
</g>
<!-- Node2 -->
<g id="Node000002" class="node">
<title>Node2</title>
<g id="a_Node000002"><a xlink:href="structsim_1_1Packet.html" target="_top" xlink:title="数据包基类，提供数据传输的基本功能">
<polygon fill="white" stroke="transparent" points="104,-370 0,-370 0,-186 104,-186 104,-370"/>
<text text-anchor="start" x="24" y="-358" font-family="Helvetica,sans-Serif" font-size="10.00">sim::Packet</text>
<text text-anchor="start" x="4" y="-343" font-family="Helvetica,sans-Serif" font-size="10.00">+</text>
<text text-anchor="start" x="17" y="-343" font-family="Helvetica,sans-Serif" font-size="10.00">src_node_id_</text>
<text text-anchor="start" x="4" y="-328" font-family="Helvetica,sans-Serif" font-size="10.00">+</text>
<text text-anchor="start" x="17" y="-328" font-family="Helvetica,sans-Serif" font-size="10.00">deserialize()</text>
<text text-anchor="start" x="4" y="-313" font-family="Helvetica,sans-Serif" font-size="10.00">+</text>
<text text-anchor="start" x="17" y="-313" font-family="Helvetica,sans-Serif" font-size="10.00">deserializeImpl()</text>
<text text-anchor="start" x="4" y="-298" font-family="Helvetica,sans-Serif" font-size="10.00">+</text>
<text text-anchor="start" x="17" y="-298" font-family="Helvetica,sans-Serif" font-size="10.00">getPacketID()</text>
<text text-anchor="start" x="4" y="-283" font-family="Helvetica,sans-Serif" font-size="10.00">+</text>
<text text-anchor="start" x="17" y="-283" font-family="Helvetica,sans-Serif" font-size="10.00">getPayloads()</text>
<text text-anchor="start" x="4" y="-268" font-family="Helvetica,sans-Serif" font-size="10.00">+</text>
<text text-anchor="start" x="17" y="-268" font-family="Helvetica,sans-Serif" font-size="10.00">getSrcNodeID()</text>
<text text-anchor="start" x="4" y="-253" font-family="Helvetica,sans-Serif" font-size="10.00">+</text>
<text text-anchor="start" x="17" y="-253" font-family="Helvetica,sans-Serif" font-size="10.00">getTypeID()</text>
<text text-anchor="start" x="4" y="-238" font-family="Helvetica,sans-Serif" font-size="10.00">+</text>
<text text-anchor="start" x="17" y="-238" font-family="Helvetica,sans-Serif" font-size="10.00">Packet()</text>
<text text-anchor="start" x="4" y="-223" font-family="Helvetica,sans-Serif" font-size="10.00">+</text>
<text text-anchor="start" x="17" y="-223" font-family="Helvetica,sans-Serif" font-size="10.00">serialize()</text>
<text text-anchor="start" x="4" y="-208" font-family="Helvetica,sans-Serif" font-size="10.00">+</text>
<text text-anchor="start" x="17" y="-208" font-family="Helvetica,sans-Serif" font-size="10.00">serializeImpl()</text>
<text text-anchor="start" x="4" y="-193" font-family="Helvetica,sans-Serif" font-size="10.00">+</text>
<text text-anchor="start" x="17" y="-193" font-family="Helvetica,sans-Serif" font-size="10.00">~Packet()</text>
<polygon fill="#666666" stroke="#666666" points="0,-353 0,-353 104,-353 104,-353 0,-353"/>
<polygon fill="#666666" stroke="#666666" points="0,-338 0,-338 15,-338 15,-338 0,-338"/>
<polygon fill="#666666" stroke="#666666" points="15,-338 15,-338 104,-338 104,-338 15,-338"/>
<polygon fill="none" stroke="#666666" points="0,-186 0,-370 104,-370 104,-186 0,-186"/>
</a>
</g>
</g>
<!-- Node2&#45;&gt;Node1 -->
<g id="edge1_Node000001_Node000002" class="edge">
<title>Node2&#45;&gt;Node1</title>
<g id="a_edge1_Node000001_Node000002"><a xlink:title=" ">
<path fill="none" stroke="#63b8ff" d="M76,-175.87C78.95,-163.44 81.91,-150.96 84.71,-139.17"/>
<polygon fill="none" stroke="#63b8ff" points="72.54,-175.29 73.63,-185.82 79.35,-176.9 72.54,-175.29"/>
</a>
</g>
</g>
<!-- Node3 -->
<g id="Node000003" class="node">
<title>Node3</title>
<g id="a_Node000003"><a xlink:href="structsim_1_1PacketID.html" target="_top" xlink:title=" ">
<polygon fill="white" stroke="transparent" points="92.5,-526 5.5,-526 5.5,-417 92.5,-417 92.5,-526"/>
<text text-anchor="start" x="16" y="-513.5" font-family="Helvetica,sans-Serif" font-size="10.00">sim::PacketID</text>
<text text-anchor="start" x="10" y="-498.5" font-family="Helvetica,sans-Serif" font-size="10.00">+</text>
<text text-anchor="start" x="23" y="-498.5" font-family="Helvetica,sans-Serif" font-size="10.00">local_seq</text>
<text text-anchor="start" x="10" y="-483.5" font-family="Helvetica,sans-Serif" font-size="10.00">+</text>
<text text-anchor="start" x="23" y="-483.5" font-family="Helvetica,sans-Serif" font-size="10.00">node_id</text>
<text text-anchor="start" x="10" y="-468.5" font-family="Helvetica,sans-Serif" font-size="10.00">+</text>
<text text-anchor="start" x="23" y="-468.5" font-family="Helvetica,sans-Serif" font-size="10.00">operator==()</text>
<text text-anchor="start" x="10" y="-453.5" font-family="Helvetica,sans-Serif" font-size="10.00">+</text>
<text text-anchor="start" x="23" y="-453.5" font-family="Helvetica,sans-Serif" font-size="10.00">PacketID()</text>
<text text-anchor="start" x="10" y="-438.5" font-family="Helvetica,sans-Serif" font-size="10.00">+</text>
<text text-anchor="start" x="23" y="-438.5" font-family="Helvetica,sans-Serif" font-size="10.00">PacketID()</text>
<text text-anchor="start" x="10" y="-423.5" font-family="Helvetica,sans-Serif" font-size="10.00">+</text>
<text text-anchor="start" x="23" y="-423.5" font-family="Helvetica,sans-Serif" font-size="10.00">toString()</text>
<polygon fill="#666666" stroke="#666666" points="6,-508.5 6,-508.5 93,-508.5 93,-508.5 6,-508.5"/>
<polygon fill="#666666" stroke="#666666" points="6,-478.5 6,-478.5 21,-478.5 21,-478.5 6,-478.5"/>
<polygon fill="#666666" stroke="#666666" points="21,-478.5 21,-478.5 93,-478.5 93,-478.5 21,-478.5"/>
<polygon fill="none" stroke="#666666" points="5.5,-417 5.5,-526 92.5,-526 92.5,-417 5.5,-417"/>
</a>
</g>
</g>
<!-- Node3&#45;&gt;Node2 -->
<g id="edge2_Node000002_Node000003" class="edge">
<title>Node3&#45;&gt;Node2</title>
<g id="a_edge2_Node000002_Node000003"><a xlink:title=" ">
<path fill="none" stroke="#63b8ff" d="M49.84,-416.9C50.01,-406.14 50.19,-394.5 50.38,-382.69"/>
<polygon fill="none" stroke="#63b8ff" points="50.38,-382.36 46.48,-376.3 50.57,-370.36 54.47,-376.42 50.38,-382.36"/>
</a>
</g>
<text text-anchor="middle" x="83" y="-391" font-family="Helvetica,sans-Serif" font-size="10.00" fill="grey"> +packet_id_</text>
</g>
<!-- Node4 -->
<g id="Node000004" class="node">
<title>Node4</title>
<g id="a_Node000004"><a xlink:title=" ">
<polygon fill="white" stroke="transparent" points="186.5,-302.5 127.5,-302.5 127.5,-253.5 186.5,-253.5 186.5,-302.5"/>
<text text-anchor="start" x="133" y="-290" font-family="Helvetica,sans-Serif" font-size="10.00">std::string</text>
<text text-anchor="start" x="155.5" y="-275" font-family="Helvetica,sans-Serif" font-size="10.00"> </text>
<text text-anchor="start" x="155.5" y="-260" font-family="Helvetica,sans-Serif" font-size="10.00"> </text>
<polygon fill="#666666" stroke="#666666" points="128,-285 128,-285 187,-285 187,-285 128,-285"/>
<polygon fill="#666666" stroke="#666666" points="128,-270 128,-270 187,-270 187,-270 128,-270"/>
<polygon fill="none" stroke="#666666" points="127.5,-253.5 127.5,-302.5 186.5,-302.5 186.5,-253.5 127.5,-253.5"/>
</a>
</g>
</g>
<!-- Node4&#45;&gt;Node1 -->
<g id="edge3_Node000001_Node000004" class="edge">
<title>Node4&#45;&gt;Node1</title>
<g id="a_edge3_Node000001_Node000004"><a xlink:title=" ">
<path fill="none" stroke="#63b8ff" d="M150.58,-253.31C143.81,-228.36 132.78,-187.68 122.84,-151.03"/>
<polygon fill="none" stroke="#63b8ff" points="122.8,-150.87 117.37,-146.13 119.66,-139.29 125.09,-144.04 122.8,-150.87"/>
</a>
</g>
<text text-anchor="middle" x="146" y="-160" font-family="Helvetica,sans-Serif" font-size="10.00" fill="grey"> +info_</text>
</g>
<!-- Node5 -->
<g id="Node000005" class="node">
<title>Node5</title>
<g id="a_Node000005"><a xlink:title=" ">
<polygon fill="white" stroke="transparent" points="209,-501.5 111,-501.5 111,-441.5 209,-441.5 209,-501.5"/>
<text text-anchor="start" x="116" y="-489.5" font-family="Helvetica,sans-Serif" font-size="10.00">std::basic_string&lt;</text>
<text text-anchor="start" x="141.5" y="-478.5" font-family="Helvetica,sans-Serif" font-size="10.00"> Char &gt;</text>
<text text-anchor="start" x="158" y="-463.5" font-family="Helvetica,sans-Serif" font-size="10.00"> </text>
<text text-anchor="start" x="158" y="-448.5" font-family="Helvetica,sans-Serif" font-size="10.00"> </text>
<polygon fill="#666666" stroke="#666666" points="111,-473.5 111,-473.5 209,-473.5 209,-473.5 111,-473.5"/>
<polygon fill="#666666" stroke="#666666" points="111,-458.5 111,-458.5 209,-458.5 209,-458.5 111,-458.5"/>
<polygon fill="none" stroke="#666666" points="111,-441.5 111,-501.5 209,-501.5 209,-441.5 111,-441.5"/>
</a>
</g>
</g>
<!-- Node5&#45;&gt;Node4 -->
<g id="edge4_Node000004_Node000005" class="edge">
<title>Node5&#45;&gt;Node4</title>
<g id="a_edge4_Node000004_Node000005"><a xlink:title=" ">
<path fill="none" stroke="#63b8ff" d="M159.38,-431.04C158.78,-392.36 157.87,-334.66 157.37,-302.61"/>
<polygon fill="none" stroke="#63b8ff" points="155.89,-431.47 159.54,-441.42 162.89,-431.36 155.89,-431.47"/>
</a>
</g>
</g>
</g>
</svg>
