<?xml version="1.0" encoding="UTF-8" standalone="no"?>
<!DOCTYPE svg PUBLIC "-//W3C//DTD SVG 1.1//EN"
 "http://www.w3.org/Graphics/SVG/1.1/DTD/svg11.dtd">
<!-- Generated by graphviz version 2.43.0 (0)
 -->
<!-- Title: sim::OutputPort::OutputTransientState Pages: 1 -->
<svg width="348pt" height="1521pt"
 viewBox="0.00 0.00 348.00 1521.00" xmlns="http://www.w3.org/2000/svg" xmlns:xlink="http://www.w3.org/1999/xlink">
<g id="graph0" class="graph" transform="scale(1 1) rotate(0) translate(4 1517)">
<title>sim::OutputPort::OutputTransientState</title>
<!-- Node1 -->
<g id="Node000001" class="node">
<title>Node1</title>
<g id="a_Node000001"><a xlink:title="输出端口的临时状态结构">
<polygon fill="#999999" stroke="transparent" points="170,-60 0,-60 0,0 170,0 170,-60"/>
<text text-anchor="start" x="5" y="-48" font-family="Helvetica,sans-Serif" font-size="10.00">sim::OutputPort::OutputTransient</text>
<text text-anchor="start" x="72" y="-37" font-family="Helvetica,sans-Serif" font-size="10.00">State</text>
<text text-anchor="start" x="83" y="-22" font-family="Helvetica,sans-Serif" font-size="10.00"> </text>
<text text-anchor="start" x="83" y="-7" font-family="Helvetica,sans-Serif" font-size="10.00"> </text>
<polygon fill="#666666" stroke="#666666" points="0,-32 0,-32 170,-32 170,-32 0,-32"/>
<polygon fill="#666666" stroke="#666666" points="0,-17 0,-17 170,-17 170,-17 0,-17"/>
<polygon fill="none" stroke="#666666" points="0,0 0,-60 170,-60 170,0 0,0"/>
</a>
</g>
</g>
<!-- Node2 -->
<g id="Node000002" class="node">
<title>Node2</title>
<g id="a_Node000002"><a xlink:href="structsim_1_1Port_1_1TransientState.html" target="_top" xlink:title="端口的临时状态结构">
<polygon fill="white" stroke="transparent" points="134,-889.5 4,-889.5 4,-840.5 134,-840.5 134,-889.5"/>
<text text-anchor="start" x="9" y="-877" font-family="Helvetica,sans-Serif" font-size="10.00">sim::Port::TransientState</text>
<text text-anchor="start" x="21" y="-862" font-family="Helvetica,sans-Serif" font-size="10.00">+</text>
<text text-anchor="start" x="47" y="-862" font-family="Helvetica,sans-Serif" font-size="10.00">can_update</text>
<text text-anchor="start" x="67" y="-847" font-family="Helvetica,sans-Serif" font-size="10.00"> </text>
<polygon fill="#666666" stroke="#666666" points="4,-872 4,-872 134,-872 134,-872 4,-872"/>
<polygon fill="#666666" stroke="#666666" points="4,-857 4,-857 45,-857 45,-857 4,-857"/>
<polygon fill="#666666" stroke="#666666" points="45,-857 45,-857 134,-857 134,-857 45,-857"/>
<polygon fill="none" stroke="#666666" points="4,-840.5 4,-889.5 134,-889.5 134,-840.5 4,-840.5"/>
</a>
</g>
</g>
<!-- Node2&#45;&gt;Node1 -->
<g id="edge1_Node000001_Node000002" class="edge">
<title>Node2&#45;&gt;Node1</title>
<g id="a_edge1_Node000001_Node000002"><a xlink:title=" ">
<path fill="none" stroke="#63b8ff" d="M69,-829.88C69,-783.91 69,-699.53 69,-627.5 69,-627.5 69,-627.5 69,-136 69,-110.18 73.79,-81.2 78.12,-60.24"/>
<polygon fill="none" stroke="#63b8ff" points="65.5,-830.17 69,-840.17 72.5,-830.17 65.5,-830.17"/>
</a>
</g>
</g>
<!-- Node6 -->
<g id="Node000006" class="node">
<title>Node6</title>
<g id="a_Node000006"><a xlink:href="classsim_1_1Port.html" target="_top" xlink:title="端口基类，提供数据包传输的基本功能">
<polygon fill="white" stroke="transparent" points="224.5,-771 101.5,-771 101.5,-482 224.5,-482 224.5,-771"/>
<text text-anchor="start" x="141.5" y="-758.5" font-family="Helvetica,sans-Serif" font-size="10.00">sim::Port</text>
<text text-anchor="start" x="161.5" y="-743.5" font-family="Helvetica,sans-Serif" font-size="10.00"> </text>
<text text-anchor="start" x="106" y="-728.5" font-family="Helvetica,sans-Serif" font-size="10.00">+</text>
<text text-anchor="start" x="119" y="-728.5" font-family="Helvetica,sans-Serif" font-size="10.00">canAcceptPacket()</text>
<text text-anchor="start" x="106" y="-713.5" font-family="Helvetica,sans-Serif" font-size="10.00">+</text>
<text text-anchor="start" x="119" y="-713.5" font-family="Helvetica,sans-Serif" font-size="10.00">deserialize()</text>
<text text-anchor="start" x="106" y="-698.5" font-family="Helvetica,sans-Serif" font-size="10.00">+</text>
<text text-anchor="start" x="119" y="-698.5" font-family="Helvetica,sans-Serif" font-size="10.00">getAcceptedTypeID()</text>
<text text-anchor="start" x="106" y="-683.5" font-family="Helvetica,sans-Serif" font-size="10.00">+</text>
<text text-anchor="start" x="119" y="-683.5" font-family="Helvetica,sans-Serif" font-size="10.00">getCapacity()</text>
<text text-anchor="start" x="106" y="-668.5" font-family="Helvetica,sans-Serif" font-size="10.00">+</text>
<text text-anchor="start" x="119" y="-668.5" font-family="Helvetica,sans-Serif" font-size="10.00">getName()</text>
<text text-anchor="start" x="106" y="-653.5" font-family="Helvetica,sans-Serif" font-size="10.00">+</text>
<text text-anchor="start" x="119" y="-653.5" font-family="Helvetica,sans-Serif" font-size="10.00">getTickTock()</text>
<text text-anchor="start" x="106" y="-638.5" font-family="Helvetica,sans-Serif" font-size="10.00">+</text>
<text text-anchor="start" x="119" y="-638.5" font-family="Helvetica,sans-Serif" font-size="10.00">hasCapacity()</text>
<text text-anchor="start" x="106" y="-623.5" font-family="Helvetica,sans-Serif" font-size="10.00">+</text>
<text text-anchor="start" x="119" y="-623.5" font-family="Helvetica,sans-Serif" font-size="10.00">Port()</text>
<text text-anchor="start" x="106" y="-608.5" font-family="Helvetica,sans-Serif" font-size="10.00">+</text>
<text text-anchor="start" x="119" y="-608.5" font-family="Helvetica,sans-Serif" font-size="10.00">serialize()</text>
<text text-anchor="start" x="106" y="-593.5" font-family="Helvetica,sans-Serif" font-size="10.00">+</text>
<text text-anchor="start" x="119" y="-593.5" font-family="Helvetica,sans-Serif" font-size="10.00">size()</text>
<text text-anchor="start" x="106" y="-578.5" font-family="Helvetica,sans-Serif" font-size="10.00">+</text>
<text text-anchor="start" x="119" y="-578.5" font-family="Helvetica,sans-Serif" font-size="10.00">tick()</text>
<text text-anchor="start" x="106" y="-563.5" font-family="Helvetica,sans-Serif" font-size="10.00">+</text>
<text text-anchor="start" x="119" y="-563.5" font-family="Helvetica,sans-Serif" font-size="10.00">tock()</text>
<text text-anchor="start" x="106" y="-548.5" font-family="Helvetica,sans-Serif" font-size="10.00">+</text>
<text text-anchor="start" x="119" y="-548.5" font-family="Helvetica,sans-Serif" font-size="10.00">~Port()</text>
<text text-anchor="start" x="106" y="-533.5" font-family="Helvetica,sans-Serif" font-size="10.00">#</text>
<text text-anchor="start" x="119" y="-533.5" font-family="Helvetica,sans-Serif" font-size="10.00">deserializeImpl()</text>
<text text-anchor="start" x="106" y="-518.5" font-family="Helvetica,sans-Serif" font-size="10.00">#</text>
<text text-anchor="start" x="119" y="-518.5" font-family="Helvetica,sans-Serif" font-size="10.00">onTick()</text>
<text text-anchor="start" x="106" y="-503.5" font-family="Helvetica,sans-Serif" font-size="10.00">#</text>
<text text-anchor="start" x="119" y="-503.5" font-family="Helvetica,sans-Serif" font-size="10.00">onTock()</text>
<text text-anchor="start" x="106" y="-488.5" font-family="Helvetica,sans-Serif" font-size="10.00">#</text>
<text text-anchor="start" x="119" y="-488.5" font-family="Helvetica,sans-Serif" font-size="10.00">serializeImpl()</text>
<polygon fill="#666666" stroke="#666666" points="102,-753.5 102,-753.5 225,-753.5 225,-753.5 102,-753.5"/>
<polygon fill="#666666" stroke="#666666" points="102,-738.5 102,-738.5 225,-738.5 225,-738.5 102,-738.5"/>
<polygon fill="none" stroke="#666666" points="101.5,-482 101.5,-771 224.5,-771 224.5,-482 101.5,-482"/>
</a>
</g>
</g>
<!-- Node2&#45;&gt;Node6 -->
<g id="edge13_Node000006_Node000002" class="edge">
<title>Node2&#45;&gt;Node6</title>
<g id="a_edge13_Node000006_Node000002"><a xlink:title=" ">
<path fill="none" stroke="#63b8ff" d="M78.36,-840.46C84.26,-825.6 92.46,-804.98 101.44,-782.38"/>
<polygon fill="none" stroke="#63b8ff" points="101.47,-782.3 99.97,-775.24 105.91,-771.14 107.41,-778.2 101.47,-782.3"/>
</a>
</g>
<text text-anchor="middle" x="122.5" y="-792" font-family="Helvetica,sans-Serif" font-size="10.00" fill="grey"> #t_state_</text>
</g>
<!-- Node3 -->
<g id="Node000003" class="node">
<title>Node3</title>
<g id="a_Node000003"><a xlink:title=" ">
<polygon fill="white" stroke="transparent" points="228.5,-167 97.5,-167 97.5,-107 228.5,-107 228.5,-167"/>
<text text-anchor="start" x="103" y="-155" font-family="Helvetica,sans-Serif" font-size="10.00">std::vector&lt; std::shared</text>
<text text-anchor="start" x="103" y="-144" font-family="Helvetica,sans-Serif" font-size="10.00">_ptr&lt; sim::InputPort &gt; &gt;</text>
<text text-anchor="start" x="161.5" y="-129" font-family="Helvetica,sans-Serif" font-size="10.00"> </text>
<text text-anchor="start" x="161.5" y="-114" font-family="Helvetica,sans-Serif" font-size="10.00"> </text>
<polygon fill="#666666" stroke="#666666" points="98,-139 98,-139 229,-139 229,-139 98,-139"/>
<polygon fill="#666666" stroke="#666666" points="98,-124 98,-124 229,-124 229,-124 98,-124"/>
<polygon fill="none" stroke="#666666" points="97.5,-107 97.5,-167 228.5,-167 228.5,-107 97.5,-107"/>
</a>
</g>
</g>
<!-- Node3&#45;&gt;Node1 -->
<g id="edge2_Node000001_Node000003" class="edge">
<title>Node3&#45;&gt;Node1</title>
<g id="a_edge2_Node000001_Node000003"><a xlink:title=" ">
<path fill="none" stroke="#63b8ff" d="M141.27,-106.75C132.82,-95.37 123.01,-82.17 113.97,-70"/>
<polygon fill="none" stroke="#63b8ff" points="113.77,-69.72 106.98,-67.29 106.61,-60.09 113.4,-62.52 113.77,-69.72"/>
</a>
</g>
<text text-anchor="middle" x="173" y="-81" font-family="Helvetica,sans-Serif" font-size="10.00" fill="grey"> +connected_ports</text>
</g>
<!-- Node4 -->
<g id="Node000004" class="node">
<title>Node4</title>
<g id="a_Node000004"><a xlink:title=" ">
<polygon fill="white" stroke="transparent" points="219.5,-274 106.5,-274 106.5,-214 219.5,-214 219.5,-274"/>
<text text-anchor="start" x="112" y="-262" font-family="Helvetica,sans-Serif" font-size="10.00">std::shared_ptr&lt; sim</text>
<text text-anchor="start" x="132.5" y="-251" font-family="Helvetica,sans-Serif" font-size="10.00">::InputPort &gt;</text>
<text text-anchor="start" x="161.5" y="-236" font-family="Helvetica,sans-Serif" font-size="10.00"> </text>
<text text-anchor="start" x="118.5" y="-221" font-family="Helvetica,sans-Serif" font-size="10.00">+</text>
<text text-anchor="start" x="139" y="-221" font-family="Helvetica,sans-Serif" font-size="10.00">operator&#45;&gt;()</text>
<polygon fill="#666666" stroke="#666666" points="107,-246 107,-246 220,-246 220,-246 107,-246"/>
<polygon fill="#666666" stroke="#666666" points="107,-231 107,-231 220,-231 220,-231 107,-231"/>
<polygon fill="none" stroke="#666666" points="106.5,-214 106.5,-274 219.5,-274 219.5,-214 106.5,-214"/>
</a>
</g>
</g>
<!-- Node4&#45;&gt;Node3 -->
<g id="edge3_Node000003_Node000004" class="edge">
<title>Node4&#45;&gt;Node3</title>
<g id="a_edge3_Node000003_Node000004"><a xlink:title=" ">
<path fill="none" stroke="#63b8ff" d="M163,-213.75C163,-203.06 163,-190.75 163,-179.2"/>
<polygon fill="none" stroke="#63b8ff" points="163,-179.09 159,-173.09 163,-167.09 167,-173.09 163,-179.09"/>
</a>
</g>
<text text-anchor="middle" x="192" y="-188" font-family="Helvetica,sans-Serif" font-size="10.00" fill="grey"> +elements</text>
</g>
<!-- Node5 -->
<g id="Node000005" class="node">
<title>Node5</title>
<g id="a_Node000005"><a xlink:href="classsim_1_1InputPort.html" target="_top" xlink:title="输入端口类，用于接收数据包">
<polygon fill="white" stroke="transparent" points="211.5,-445 114.5,-445 114.5,-321 211.5,-321 211.5,-445"/>
<text text-anchor="start" x="129" y="-433" font-family="Helvetica,sans-Serif" font-size="10.00">sim::InputPort</text>
<text text-anchor="start" x="161.5" y="-418" font-family="Helvetica,sans-Serif" font-size="10.00"> </text>
<text text-anchor="start" x="119" y="-403" font-family="Helvetica,sans-Serif" font-size="10.00">+</text>
<text text-anchor="start" x="132" y="-403" font-family="Helvetica,sans-Serif" font-size="10.00">isValid()</text>
<text text-anchor="start" x="119" y="-388" font-family="Helvetica,sans-Serif" font-size="10.00">+</text>
<text text-anchor="start" x="132" y="-388" font-family="Helvetica,sans-Serif" font-size="10.00">peekPacket()</text>
<text text-anchor="start" x="119" y="-373" font-family="Helvetica,sans-Serif" font-size="10.00">+</text>
<text text-anchor="start" x="132" y="-373" font-family="Helvetica,sans-Serif" font-size="10.00">popPacket()</text>
<text text-anchor="start" x="119" y="-358" font-family="Helvetica,sans-Serif" font-size="10.00">+</text>
<text text-anchor="start" x="132" y="-358" font-family="Helvetica,sans-Serif" font-size="10.00">Port()</text>
<text text-anchor="start" x="119" y="-343" font-family="Helvetica,sans-Serif" font-size="10.00">+</text>
<text text-anchor="start" x="132" y="-343" font-family="Helvetica,sans-Serif" font-size="10.00">receivePacket()</text>
<text text-anchor="start" x="119" y="-328" font-family="Helvetica,sans-Serif" font-size="10.00">#</text>
<text text-anchor="start" x="132" y="-328" font-family="Helvetica,sans-Serif" font-size="10.00">onTick()</text>
<polygon fill="#666666" stroke="#666666" points="115,-428 115,-428 212,-428 212,-428 115,-428"/>
<polygon fill="#666666" stroke="#666666" points="115,-413 115,-413 212,-413 212,-413 115,-413"/>
<polygon fill="none" stroke="#666666" points="114.5,-321 114.5,-445 211.5,-445 211.5,-321 114.5,-321"/>
</a>
</g>
</g>
<!-- Node5&#45;&gt;Node4 -->
<g id="edge4_Node000004_Node000005" class="edge">
<title>Node5&#45;&gt;Node4</title>
<g id="a_edge4_Node000004_Node000005"><a xlink:title=" ">
<path fill="none" stroke="#63b8ff" d="M163,-320.71C163,-309.04 163,-297.08 163,-286.22"/>
<polygon fill="none" stroke="#63b8ff" points="163,-286.05 159,-280.05 163,-274.05 167,-280.05 163,-286.05"/>
</a>
</g>
<text text-anchor="middle" x="175.5" y="-295" font-family="Helvetica,sans-Serif" font-size="10.00" fill="grey"> +ptr</text>
</g>
<!-- Node6&#45;&gt;Node5 -->
<g id="edge5_Node000005_Node000006" class="edge">
<title>Node6&#45;&gt;Node5</title>
<g id="a_edge5_Node000005_Node000006"><a xlink:title=" ">
<path fill="none" stroke="#63b8ff" d="M163,-471.8C163,-462.59 163,-453.66 163,-445.25"/>
<polygon fill="none" stroke="#63b8ff" points="159.5,-471.88 163,-481.88 166.5,-471.88 159.5,-471.88"/>
</a>
</g>
</g>
<!-- Node7 -->
<g id="Node000007" class="node">
<title>Node7</title>
<g id="a_Node000007"><a xlink:href="structsim_1_1Port_1_1PersistentState.html" target="_top" xlink:title="端口的持久状态结构">
<polygon fill="white" stroke="transparent" points="286,-912 152,-912 152,-818 286,-818 286,-912"/>
<text text-anchor="start" x="157" y="-900" font-family="Helvetica,sans-Serif" font-size="10.00">sim::Port::PersistentState</text>
<text text-anchor="start" x="162.5" y="-885" font-family="Helvetica,sans-Serif" font-size="10.00">+</text>
<text text-anchor="start" x="182" y="-885" font-family="Helvetica,sans-Serif" font-size="10.00">accepted_type_id</text>
<text text-anchor="start" x="162.5" y="-870" font-family="Helvetica,sans-Serif" font-size="10.00">+</text>
<text text-anchor="start" x="182" y="-870" font-family="Helvetica,sans-Serif" font-size="10.00">capacity</text>
<text text-anchor="start" x="162.5" y="-855" font-family="Helvetica,sans-Serif" font-size="10.00">+</text>
<text text-anchor="start" x="182" y="-855" font-family="Helvetica,sans-Serif" font-size="10.00">tick_tock</text>
<text text-anchor="start" x="162.5" y="-840" font-family="Helvetica,sans-Serif" font-size="10.00">+</text>
<text text-anchor="start" x="182" y="-840" font-family="Helvetica,sans-Serif" font-size="10.00">deserialize()</text>
<text text-anchor="start" x="162.5" y="-825" font-family="Helvetica,sans-Serif" font-size="10.00">+</text>
<text text-anchor="start" x="182" y="-825" font-family="Helvetica,sans-Serif" font-size="10.00">serialize()</text>
<polygon fill="#666666" stroke="#666666" points="152,-895 152,-895 286,-895 286,-895 152,-895"/>
<polygon fill="#666666" stroke="#666666" points="152,-850 152,-850 180,-850 180,-850 152,-850"/>
<polygon fill="#666666" stroke="#666666" points="180,-850 180,-850 286,-850 286,-850 180,-850"/>
<polygon fill="none" stroke="#666666" points="152,-818 152,-912 286,-912 286,-818 152,-818"/>
</a>
</g>
</g>
<!-- Node7&#45;&gt;Node6 -->
<g id="edge6_Node000006_Node000007" class="edge">
<title>Node7&#45;&gt;Node6</title>
<g id="a_edge6_Node000006_Node000007"><a xlink:title=" ">
<path fill="none" stroke="#63b8ff" d="M208.07,-817.84C205.59,-807.35 202.81,-795.63 199.89,-783.31"/>
<polygon fill="none" stroke="#63b8ff" points="199.82,-783 194.55,-778.08 197.06,-771.32 202.33,-776.24 199.82,-783"/>
</a>
</g>
<text text-anchor="middle" x="228.5" y="-792" font-family="Helvetica,sans-Serif" font-size="10.00" fill="grey"> #p_state_</text>
</g>
<!-- Node8 -->
<g id="Node000008" class="node">
<title>Node8</title>
<g id="a_Node000008"><a xlink:title=" ">
<polygon fill="white" stroke="transparent" points="187.5,-1013.5 128.5,-1013.5 128.5,-964.5 187.5,-964.5 187.5,-1013.5"/>
<text text-anchor="start" x="134" y="-1001" font-family="Helvetica,sans-Serif" font-size="10.00">std::string</text>
<text text-anchor="start" x="156.5" y="-986" font-family="Helvetica,sans-Serif" font-size="10.00"> </text>
<text text-anchor="start" x="156.5" y="-971" font-family="Helvetica,sans-Serif" font-size="10.00"> </text>
<polygon fill="#666666" stroke="#666666" points="129,-996 129,-996 188,-996 188,-996 129,-996"/>
<polygon fill="#666666" stroke="#666666" points="129,-981 129,-981 188,-981 188,-981 129,-981"/>
<polygon fill="none" stroke="#666666" points="128.5,-964.5 128.5,-1013.5 187.5,-1013.5 187.5,-964.5 128.5,-964.5"/>
</a>
</g>
</g>
<!-- Node8&#45;&gt;Node7 -->
<g id="edge7_Node000007_Node000008" class="edge">
<title>Node8&#45;&gt;Node7</title>
<g id="a_edge7_Node000007_Node000008"><a xlink:title=" ">
<path fill="none" stroke="#63b8ff" d="M169.76,-964.48C175.67,-952.67 183.1,-937.8 190.39,-923.22"/>
<polygon fill="none" stroke="#63b8ff" points="190.54,-922.92 189.64,-915.77 195.91,-912.19 196.8,-919.34 190.54,-922.92"/>
</a>
</g>
<text text-anchor="middle" x="206" y="-933" font-family="Helvetica,sans-Serif" font-size="10.00" fill="grey"> +name</text>
</g>
<!-- Node9 -->
<g id="Node000009" class="node">
<title>Node9</title>
<g id="a_Node000009"><a xlink:title=" ">
<polygon fill="white" stroke="transparent" points="201,-1126 103,-1126 103,-1066 201,-1066 201,-1126"/>
<text text-anchor="start" x="108" y="-1114" font-family="Helvetica,sans-Serif" font-size="10.00">std::basic_string&lt;</text>
<text text-anchor="start" x="133.5" y="-1103" font-family="Helvetica,sans-Serif" font-size="10.00"> Char &gt;</text>
<text text-anchor="start" x="150" y="-1088" font-family="Helvetica,sans-Serif" font-size="10.00"> </text>
<text text-anchor="start" x="150" y="-1073" font-family="Helvetica,sans-Serif" font-size="10.00"> </text>
<polygon fill="#666666" stroke="#666666" points="103,-1098 103,-1098 201,-1098 201,-1098 103,-1098"/>
<polygon fill="#666666" stroke="#666666" points="103,-1083 103,-1083 201,-1083 201,-1083 103,-1083"/>
<polygon fill="none" stroke="#666666" points="103,-1066 103,-1126 201,-1126 201,-1066 103,-1066"/>
</a>
</g>
</g>
<!-- Node9&#45;&gt;Node8 -->
<g id="edge8_Node000008_Node000009" class="edge">
<title>Node9&#45;&gt;Node8</title>
<g id="a_edge8_Node000008_Node000009"><a xlink:title=" ">
<path fill="none" stroke="#63b8ff" d="M154.26,-1055.37C155.06,-1041.37 155.94,-1026.07 156.64,-1013.79"/>
<polygon fill="none" stroke="#63b8ff" points="150.75,-1055.57 153.67,-1065.75 157.74,-1055.97 150.75,-1055.57"/>
</a>
</g>
</g>
<!-- Node10 -->
<g id="Node000010" class="node">
<title>Node10</title>
<g id="a_Node000010"><a xlink:title=" ">
<polygon fill="white" stroke="transparent" points="337,-1019 209,-1019 209,-959 337,-959 337,-1019"/>
<text text-anchor="start" x="214" y="-1007" font-family="Helvetica,sans-Serif" font-size="10.00">std::vector&lt; std::shared</text>
<text text-anchor="start" x="218.5" y="-996" font-family="Helvetica,sans-Serif" font-size="10.00">_ptr&lt; sim::Packet &gt; &gt;</text>
<text text-anchor="start" x="271" y="-981" font-family="Helvetica,sans-Serif" font-size="10.00"> </text>
<text text-anchor="start" x="271" y="-966" font-family="Helvetica,sans-Serif" font-size="10.00"> </text>
<polygon fill="#666666" stroke="#666666" points="209,-991 209,-991 337,-991 337,-991 209,-991"/>
<polygon fill="#666666" stroke="#666666" points="209,-976 209,-976 337,-976 337,-976 209,-976"/>
<polygon fill="none" stroke="#666666" points="209,-959 209,-1019 337,-1019 337,-959 209,-959"/>
</a>
</g>
</g>
<!-- Node10&#45;&gt;Node7 -->
<g id="edge9_Node000007_Node000010" class="edge">
<title>Node10&#45;&gt;Node7</title>
<g id="a_edge9_Node000007_Node000010"><a xlink:title=" ">
<path fill="none" stroke="#63b8ff" d="M260.07,-958.78C255.34,-948.09 249.81,-935.6 244.37,-923.31"/>
<polygon fill="none" stroke="#63b8ff" points="244.28,-923.11 238.19,-919.24 239.42,-912.14 245.51,-916 244.28,-923.11"/>
</a>
</g>
<text text-anchor="middle" x="274.5" y="-933" font-family="Helvetica,sans-Serif" font-size="10.00" fill="grey"> +packets</text>
</g>
<!-- Node11 -->
<g id="Node000011" class="node">
<title>Node11</title>
<g id="a_Node000011"><a xlink:title=" ">
<polygon fill="white" stroke="transparent" points="332.5,-1126 219.5,-1126 219.5,-1066 332.5,-1066 332.5,-1126"/>
<text text-anchor="start" x="225" y="-1114" font-family="Helvetica,sans-Serif" font-size="10.00">std::shared_ptr&lt; sim</text>
<text text-anchor="start" x="252" y="-1103" font-family="Helvetica,sans-Serif" font-size="10.00">::Packet &gt;</text>
<text text-anchor="start" x="274.5" y="-1088" font-family="Helvetica,sans-Serif" font-size="10.00"> </text>
<text text-anchor="start" x="231.5" y="-1073" font-family="Helvetica,sans-Serif" font-size="10.00">+</text>
<text text-anchor="start" x="252" y="-1073" font-family="Helvetica,sans-Serif" font-size="10.00">operator&#45;&gt;()</text>
<polygon fill="#666666" stroke="#666666" points="220,-1098 220,-1098 333,-1098 333,-1098 220,-1098"/>
<polygon fill="#666666" stroke="#666666" points="220,-1083 220,-1083 333,-1083 333,-1083 220,-1083"/>
<polygon fill="none" stroke="#666666" points="219.5,-1066 219.5,-1126 332.5,-1126 332.5,-1066 219.5,-1066"/>
</a>
</g>
</g>
<!-- Node11&#45;&gt;Node10 -->
<g id="edge10_Node000010_Node000011" class="edge">
<title>Node11&#45;&gt;Node10</title>
<g id="a_edge10_Node000010_Node000011"><a xlink:title=" ">
<path fill="none" stroke="#63b8ff" d="M275.16,-1065.75C274.86,-1055.06 274.51,-1042.75 274.18,-1031.2"/>
<polygon fill="none" stroke="#63b8ff" points="274.17,-1031.09 270,-1025.2 273.83,-1019.09 278,-1024.97 274.17,-1031.09"/>
</a>
</g>
<text text-anchor="middle" x="303" y="-1040" font-family="Helvetica,sans-Serif" font-size="10.00" fill="grey"> +elements</text>
</g>
<!-- Node12 -->
<g id="Node000012" class="node">
<title>Node12</title>
<g id="a_Node000012"><a xlink:href="structsim_1_1Packet.html" target="_top" xlink:title="数据包基类，提供数据传输的基本功能">
<polygon fill="white" stroke="transparent" points="328,-1357 224,-1357 224,-1173 328,-1173 328,-1357"/>
<text text-anchor="start" x="248" y="-1345" font-family="Helvetica,sans-Serif" font-size="10.00">sim::Packet</text>
<text text-anchor="start" x="228" y="-1330" font-family="Helvetica,sans-Serif" font-size="10.00">+</text>
<text text-anchor="start" x="241" y="-1330" font-family="Helvetica,sans-Serif" font-size="10.00">src_node_id_</text>
<text text-anchor="start" x="228" y="-1315" font-family="Helvetica,sans-Serif" font-size="10.00">+</text>
<text text-anchor="start" x="241" y="-1315" font-family="Helvetica,sans-Serif" font-size="10.00">deserialize()</text>
<text text-anchor="start" x="228" y="-1300" font-family="Helvetica,sans-Serif" font-size="10.00">+</text>
<text text-anchor="start" x="241" y="-1300" font-family="Helvetica,sans-Serif" font-size="10.00">deserializeImpl()</text>
<text text-anchor="start" x="228" y="-1285" font-family="Helvetica,sans-Serif" font-size="10.00">+</text>
<text text-anchor="start" x="241" y="-1285" font-family="Helvetica,sans-Serif" font-size="10.00">getPacketID()</text>
<text text-anchor="start" x="228" y="-1270" font-family="Helvetica,sans-Serif" font-size="10.00">+</text>
<text text-anchor="start" x="241" y="-1270" font-family="Helvetica,sans-Serif" font-size="10.00">getPayloads()</text>
<text text-anchor="start" x="228" y="-1255" font-family="Helvetica,sans-Serif" font-size="10.00">+</text>
<text text-anchor="start" x="241" y="-1255" font-family="Helvetica,sans-Serif" font-size="10.00">getSrcNodeID()</text>
<text text-anchor="start" x="228" y="-1240" font-family="Helvetica,sans-Serif" font-size="10.00">+</text>
<text text-anchor="start" x="241" y="-1240" font-family="Helvetica,sans-Serif" font-size="10.00">getTypeID()</text>
<text text-anchor="start" x="228" y="-1225" font-family="Helvetica,sans-Serif" font-size="10.00">+</text>
<text text-anchor="start" x="241" y="-1225" font-family="Helvetica,sans-Serif" font-size="10.00">Packet()</text>
<text text-anchor="start" x="228" y="-1210" font-family="Helvetica,sans-Serif" font-size="10.00">+</text>
<text text-anchor="start" x="241" y="-1210" font-family="Helvetica,sans-Serif" font-size="10.00">serialize()</text>
<text text-anchor="start" x="228" y="-1195" font-family="Helvetica,sans-Serif" font-size="10.00">+</text>
<text text-anchor="start" x="241" y="-1195" font-family="Helvetica,sans-Serif" font-size="10.00">serializeImpl()</text>
<text text-anchor="start" x="228" y="-1180" font-family="Helvetica,sans-Serif" font-size="10.00">+</text>
<text text-anchor="start" x="241" y="-1180" font-family="Helvetica,sans-Serif" font-size="10.00">~Packet()</text>
<polygon fill="#666666" stroke="#666666" points="224,-1340 224,-1340 328,-1340 328,-1340 224,-1340"/>
<polygon fill="#666666" stroke="#666666" points="224,-1325 224,-1325 239,-1325 239,-1325 224,-1325"/>
<polygon fill="#666666" stroke="#666666" points="239,-1325 239,-1325 328,-1325 328,-1325 239,-1325"/>
<polygon fill="none" stroke="#666666" points="224,-1173 224,-1357 328,-1357 328,-1173 224,-1173"/>
</a>
</g>
</g>
<!-- Node12&#45;&gt;Node11 -->
<g id="edge11_Node000011_Node000012" class="edge">
<title>Node12&#45;&gt;Node11</title>
<g id="a_edge11_Node000011_Node000012"><a xlink:title=" ">
<path fill="none" stroke="#63b8ff" d="M276,-1172.68C276,-1160.66 276,-1148.86 276,-1138.29"/>
<polygon fill="none" stroke="#63b8ff" points="276,-1138.07 272,-1132.07 276,-1126.07 280,-1132.07 276,-1138.07"/>
</a>
</g>
<text text-anchor="middle" x="288.5" y="-1147" font-family="Helvetica,sans-Serif" font-size="10.00" fill="grey"> +ptr</text>
</g>
<!-- Node13 -->
<g id="Node000013" class="node">
<title>Node13</title>
<g id="a_Node000013"><a xlink:href="structsim_1_1PacketID.html" target="_top" xlink:title=" ">
<polygon fill="white" stroke="transparent" points="319.5,-1513 232.5,-1513 232.5,-1404 319.5,-1404 319.5,-1513"/>
<text text-anchor="start" x="243" y="-1500.5" font-family="Helvetica,sans-Serif" font-size="10.00">sim::PacketID</text>
<text text-anchor="start" x="237" y="-1485.5" font-family="Helvetica,sans-Serif" font-size="10.00">+</text>
<text text-anchor="start" x="250" y="-1485.5" font-family="Helvetica,sans-Serif" font-size="10.00">local_seq</text>
<text text-anchor="start" x="237" y="-1470.5" font-family="Helvetica,sans-Serif" font-size="10.00">+</text>
<text text-anchor="start" x="250" y="-1470.5" font-family="Helvetica,sans-Serif" font-size="10.00">node_id</text>
<text text-anchor="start" x="237" y="-1455.5" font-family="Helvetica,sans-Serif" font-size="10.00">+</text>
<text text-anchor="start" x="250" y="-1455.5" font-family="Helvetica,sans-Serif" font-size="10.00">operator==()</text>
<text text-anchor="start" x="237" y="-1440.5" font-family="Helvetica,sans-Serif" font-size="10.00">+</text>
<text text-anchor="start" x="250" y="-1440.5" font-family="Helvetica,sans-Serif" font-size="10.00">PacketID()</text>
<text text-anchor="start" x="237" y="-1425.5" font-family="Helvetica,sans-Serif" font-size="10.00">+</text>
<text text-anchor="start" x="250" y="-1425.5" font-family="Helvetica,sans-Serif" font-size="10.00">PacketID()</text>
<text text-anchor="start" x="237" y="-1410.5" font-family="Helvetica,sans-Serif" font-size="10.00">+</text>
<text text-anchor="start" x="250" y="-1410.5" font-family="Helvetica,sans-Serif" font-size="10.00">toString()</text>
<polygon fill="#666666" stroke="#666666" points="233,-1495.5 233,-1495.5 320,-1495.5 320,-1495.5 233,-1495.5"/>
<polygon fill="#666666" stroke="#666666" points="233,-1465.5 233,-1465.5 248,-1465.5 248,-1465.5 233,-1465.5"/>
<polygon fill="#666666" stroke="#666666" points="248,-1465.5 248,-1465.5 320,-1465.5 320,-1465.5 248,-1465.5"/>
<polygon fill="none" stroke="#666666" points="232.5,-1404 232.5,-1513 319.5,-1513 319.5,-1404 232.5,-1404"/>
</a>
</g>
</g>
<!-- Node13&#45;&gt;Node12 -->
<g id="edge12_Node000012_Node000013" class="edge">
<title>Node13&#45;&gt;Node12</title>
<g id="a_edge12_Node000012_Node000013"><a xlink:title=" ">
<path fill="none" stroke="#63b8ff" d="M276,-1403.9C276,-1393.14 276,-1381.5 276,-1369.69"/>
<polygon fill="none" stroke="#63b8ff" points="276,-1369.36 272,-1363.36 276,-1357.36 280,-1363.36 276,-1369.36"/>
</a>
</g>
<text text-anchor="middle" x="308" y="-1378" font-family="Helvetica,sans-Serif" font-size="10.00" fill="grey"> +packet_id_</text>
</g>
</g>
</svg>
