<?xml version="1.0" encoding="UTF-8" standalone="no"?>
<!DOCTYPE svg PUBLIC "-//W3C//DTD SVG 1.1//EN"
 "http://www.w3.org/Graphics/SVG/1.1/DTD/svg11.dtd">
<!-- Generated by graphviz version 2.40.1 (20161225.0304)
 -->
<!-- Title: src/sim/include/thread_pool.h Pages: 1 -->
<svg width="150pt" height="151pt"
 viewBox="0.00 0.00 150.00 151.00" xmlns="http://www.w3.org/2000/svg" xmlns:xlink="http://www.w3.org/1999/xlink">
<g id="graph0" class="graph" transform="scale(1 1) rotate(0) translate(4 147)">
<title>src/sim/include/thread_pool.h</title>
<polygon fill="#ffffff" stroke="transparent" points="-4,4 -4,-147 146,-147 146,4 -4,4"/>
<!-- Node8 -->
<g id="node1" class="node">
<title>Node8</title>
<polygon fill="#bfbfbf" stroke="#000000" points="8.5,-112.5 8.5,-142.5 133.5,-142.5 133.5,-112.5 8.5,-112.5"/>
<text text-anchor="start" x="16.5" y="-130.5" font-family="Helvetica,sans-Serif" font-size="10.00" fill="#000000">src/sim/include/thread</text>
<text text-anchor="middle" x="71" y="-119.5" font-family="Helvetica,sans-Serif" font-size="10.00" fill="#000000">_pool.h</text>
</g>
<!-- Node9 -->
<g id="node2" class="node">
<title>Node9</title>
<g id="a_node2"><a xlink:href="node_8h.html" target="_top" xlink:title="定义了仿真系统中的基础节点类 ">
<polygon fill="#ffffff" stroke="#000000" points="8,-56.5 8,-75.5 134,-75.5 134,-56.5 8,-56.5"/>
<text text-anchor="middle" x="71" y="-63.5" font-family="Helvetica,sans-Serif" font-size="10.00" fill="#000000">src/sim/include/node.h</text>
</a>
</g>
</g>
<!-- Node8&#45;&gt;Node9 -->
<g id="edge1" class="edge">
<title>Node8&#45;&gt;Node9</title>
<path fill="none" stroke="#191970" d="M71,-102.2849C71,-92.9858 71,-82.9883 71,-75.8469"/>
<polygon fill="#191970" stroke="#191970" points="67.5001,-102.2977 71,-112.2977 74.5001,-102.2978 67.5001,-102.2977"/>
</g>
<!-- Node10 -->
<g id="node3" class="node">
<title>Node10</title>
<g id="a_node3"><a xlink:href="network_8h.html" target="_top" xlink:title="定义了仿真系统中的网络节点 ">
<polygon fill="#ffffff" stroke="#000000" points="0,-.5 0,-19.5 142,-19.5 142,-.5 0,-.5"/>
<text text-anchor="middle" x="71" y="-7.5" font-family="Helvetica,sans-Serif" font-size="10.00" fill="#000000">src/sim/include/network.h</text>
</a>
</g>
</g>
<!-- Node9&#45;&gt;Node10 -->
<g id="edge2" class="edge">
<title>Node9&#45;&gt;Node10</title>
<path fill="none" stroke="#191970" d="M71,-46.1575C71,-37.155 71,-26.9199 71,-19.6427"/>
<polygon fill="#191970" stroke="#191970" points="67.5001,-46.2455 71,-56.2455 74.5001,-46.2456 67.5001,-46.2455"/>
</g>
</g>
</svg>
