<?xml version="1.0" encoding="UTF-8" standalone="no"?>
<!DOCTYPE svg PUBLIC "-//W3C//DTD SVG 1.1//EN"
 "http://www.w3.org/Graphics/SVG/1.1/DTD/svg11.dtd">
<!-- Generated by graphviz version 2.43.0 (0)
 -->
<!-- Title: src/sim/include/type.h Pages: 1 -->
<svg width="308pt" height="379pt"
 viewBox="0.00 0.00 308.23 379.00" xmlns="http://www.w3.org/2000/svg" xmlns:xlink="http://www.w3.org/1999/xlink">
<g id="graph0" class="graph" transform="scale(1 1) rotate(0) translate(4 375)">
<title>src/sim/include/type.h</title>
<!-- Node1 -->
<g id="Node000001" class="node">
<title>Node1</title>
<g id="a_Node000001"><a xlink:title="定义了仿真系统中的基础类型系统">
<polygon fill="#999999" stroke="#666666" points="161.23,-371 37.23,-371 37.23,-352 161.23,-352 161.23,-371"/>
<text text-anchor="middle" x="99.23" y="-359" font-family="Helvetica,sans-Serif" font-size="10.00">src/sim/include/type.h</text>
</a>
</g>
</g>
<!-- Node2 -->
<g id="Node000002" class="node">
<title>Node2</title>
<g id="a_Node000002"><a xlink:href="node_8h.html" target="_top" xlink:title="定义了仿真系统中的基础节点类">
<polygon fill="white" stroke="#666666" points="168.23,-206 42.23,-206 42.23,-187 168.23,-187 168.23,-206"/>
<text text-anchor="middle" x="105.23" y="-194" font-family="Helvetica,sans-Serif" font-size="10.00">src/sim/include/node.h</text>
</a>
</g>
</g>
<!-- Node1&#45;&gt;Node2 -->
<g id="edge1_Node000001_Node000002" class="edge">
<title>Node1&#45;&gt;Node2</title>
<g id="a_edge1_Node000001_Node000002"><a xlink:title=" ">
<path fill="none" stroke="#63b8ff" d="M80.5,-345.3C55.05,-322.71 14.92,-278.99 35.23,-242 44.8,-224.58 64.39,-213.01 80.42,-206.05"/>
<polygon fill="#63b8ff" stroke="#63b8ff" points="78.28,-348.01 88.15,-351.85 82.83,-342.69 78.28,-348.01"/>
</a>
</g>
</g>
<!-- Node7 -->
<g id="Node000007" class="node">
<title>Node7</title>
<g id="a_Node000007"><a xlink:href="packet_8h.html" target="_top" xlink:title="定义了仿真系统中的数据包类型">
<polygon fill="white" stroke="#666666" points="261.23,-316 127.23,-316 127.23,-297 261.23,-297 261.23,-316"/>
<text text-anchor="middle" x="194.23" y="-304" font-family="Helvetica,sans-Serif" font-size="10.00">src/sim/include/packet.h</text>
</a>
</g>
</g>
<!-- Node1&#45;&gt;Node7 -->
<g id="edge8_Node000001_Node000007" class="edge">
<title>Node1&#45;&gt;Node7</title>
<g id="a_edge8_Node000001_Node000007"><a xlink:title=" ">
<path fill="none" stroke="#63b8ff" d="M123.49,-346.97C140.86,-337.28 163.72,-324.52 178.69,-316.17"/>
<polygon fill="#63b8ff" stroke="#63b8ff" points="121.52,-344.06 114.49,-351.98 124.93,-350.17 121.52,-344.06"/>
</a>
</g>
</g>
<!-- Node8 -->
<g id="Node000008" class="node">
<title>Node8</title>
<g id="a_Node000008"><a xlink:href="port_8h.html" target="_top" xlink:title="定义了仿真系统中的端口系统">
<polygon fill="white" stroke="#666666" points="166.23,-261 44.23,-261 44.23,-242 166.23,-242 166.23,-261"/>
<text text-anchor="middle" x="105.23" y="-249" font-family="Helvetica,sans-Serif" font-size="10.00">src/sim/include/port.h</text>
</a>
</g>
</g>
<!-- Node1&#45;&gt;Node8 -->
<g id="edge13_Node000001_Node000008" class="edge">
<title>Node1&#45;&gt;Node8</title>
<g id="a_edge13_Node000001_Node000008"><a xlink:title=" ">
<path fill="none" stroke="#63b8ff" d="M100.29,-341.48C101.6,-317.84 103.79,-278.5 104.75,-261.16"/>
<polygon fill="#63b8ff" stroke="#63b8ff" points="96.78,-341.48 99.72,-351.66 103.77,-341.87 96.78,-341.48"/>
</a>
</g>
</g>
<!-- Node3 -->
<g id="Node000003" class="node">
<title>Node3</title>
<g id="a_Node000003"><a xlink:href="network_8h.html" target="_top" xlink:title="定义了仿真系统中的网络节点">
<polygon fill="white" stroke="#666666" points="155.23,-151 13.23,-151 13.23,-132 155.23,-132 155.23,-151"/>
<text text-anchor="middle" x="84.23" y="-139" font-family="Helvetica,sans-Serif" font-size="10.00">src/sim/include/network.h</text>
</a>
</g>
</g>
<!-- Node2&#45;&gt;Node3 -->
<g id="edge2_Node000002_Node000003" class="edge">
<title>Node2&#45;&gt;Node3</title>
<g id="a_edge2_Node000002_Node000003"><a xlink:title=" ">
<path fill="none" stroke="#63b8ff" d="M98,-177.24C94.48,-168.37 90.43,-158.14 87.63,-151.09"/>
<polygon fill="#63b8ff" stroke="#63b8ff" points="94.83,-178.74 101.76,-186.75 101.33,-176.16 94.83,-178.74"/>
</a>
</g>
</g>
<!-- Node5 -->
<g id="Node000005" class="node">
<title>Node5</title>
<g id="a_Node000005"><a xlink:href="producer__consumer_8h.html" target="_top" xlink:title="定义了仿真系统中的生产者和消费者节点">
<polygon fill="white" stroke="#666666" points="300.23,-96 164.23,-96 164.23,-66 300.23,-66 300.23,-96"/>
<text text-anchor="start" x="172.23" y="-84" font-family="Helvetica,sans-Serif" font-size="10.00">src/sim/include/producer</text>
<text text-anchor="middle" x="232.23" y="-73" font-family="Helvetica,sans-Serif" font-size="10.00">_consumer.h</text>
</a>
</g>
</g>
<!-- Node2&#45;&gt;Node5 -->
<g id="edge7_Node000002_Node000005" class="edge">
<title>Node2&#45;&gt;Node5</title>
<g id="a_edge7_Node000002_Node000005"><a xlink:title=" ">
<path fill="none" stroke="#63b8ff" d="M126.04,-180.95C137.61,-172.58 152.08,-161.64 164.23,-151 184.6,-133.16 206.24,-110.47 219.5,-96.08"/>
<polygon fill="#63b8ff" stroke="#63b8ff" points="123.95,-178.14 117.85,-186.8 128.02,-183.84 123.95,-178.14"/>
</a>
</g>
</g>
<!-- Node4 -->
<g id="Node000004" class="node">
<title>Node4</title>
<g id="a_Node000004"><a xlink:href="network__factory_8h.html" target="_top" xlink:title="定义了仿真系统中的网络工厂类">
<polygon fill="white" stroke="#666666" points="175.73,-30 42.73,-30 42.73,0 175.73,0 175.73,-30"/>
<text text-anchor="start" x="50.73" y="-18" font-family="Helvetica,sans-Serif" font-size="10.00">src/sim/include/network</text>
<text text-anchor="middle" x="109.23" y="-7" font-family="Helvetica,sans-Serif" font-size="10.00">_factory.h</text>
</a>
</g>
</g>
<!-- Node3&#45;&gt;Node4 -->
<g id="edge3_Node000003_Node000004" class="edge">
<title>Node3&#45;&gt;Node4</title>
<g id="a_edge3_Node000003_Node000004"><a xlink:title=" ">
<path fill="none" stroke="#63b8ff" d="M44.69,-128.05C29.59,-121.14 13.91,-110.86 5.23,-96 -1.5,-84.49 -1.87,-77.29 5.23,-66 15.95,-48.96 34.28,-37.59 52.59,-30.07"/>
<polygon fill="#63b8ff" stroke="#63b8ff" points="43.39,-131.29 53.96,-131.92 46.09,-124.83 43.39,-131.29"/>
</a>
</g>
</g>
<!-- Node3&#45;&gt;Node5 -->
<g id="edge4_Node000003_Node000005" class="edge">
<title>Node3&#45;&gt;Node5</title>
<g id="a_edge4_Node000003_Node000005"><a xlink:title=" ">
<path fill="none" stroke="#63b8ff" d="M115.33,-128.21C139.09,-118.82 171.85,-105.87 196.65,-96.06"/>
<polygon fill="#63b8ff" stroke="#63b8ff" points="113.76,-125.06 105.75,-131.99 116.34,-131.57 113.76,-125.06"/>
</a>
</g>
</g>
<!-- Node6 -->
<g id="Node000006" class="node">
<title>Node6</title>
<g id="a_Node000006"><a xlink:href="server_8h.html" target="_top" xlink:title="定义了仿真系统中的HTTP服务器和仿真引擎">
<polygon fill="white" stroke="#666666" points="146.23,-90.5 14.23,-90.5 14.23,-71.5 146.23,-71.5 146.23,-90.5"/>
<text text-anchor="middle" x="80.23" y="-78.5" font-family="Helvetica,sans-Serif" font-size="10.00">src/sim/include/server.h</text>
</a>
</g>
</g>
<!-- Node3&#45;&gt;Node6 -->
<g id="edge6_Node000003_Node000006" class="edge">
<title>Node3&#45;&gt;Node6</title>
<g id="a_edge6_Node000003_Node000006"><a xlink:title=" ">
<path fill="none" stroke="#63b8ff" d="M82.94,-121.66C82.23,-111.24 81.38,-98.8 80.82,-90.67"/>
<polygon fill="#63b8ff" stroke="#63b8ff" points="79.47,-122.13 83.64,-131.87 86.45,-121.65 79.47,-122.13"/>
</a>
</g>
</g>
<!-- Node5&#45;&gt;Node4 -->
<g id="edge5_Node000005_Node000004" class="edge">
<title>Node5&#45;&gt;Node4</title>
<g id="a_edge5_Node000005_Node000004"><a xlink:title=" ">
<path fill="none" stroke="#63b8ff" d="M196.18,-61.24C176.98,-51.25 153.77,-39.18 136.16,-30.01"/>
<polygon fill="#63b8ff" stroke="#63b8ff" points="194.75,-64.44 205.24,-65.95 197.98,-58.23 194.75,-64.44"/>
</a>
</g>
</g>
<!-- Node7&#45;&gt;Node2 -->
<g id="edge9_Node000007_Node000002" class="edge">
<title>Node7&#45;&gt;Node2</title>
<g id="a_edge9_Node000007_Node000002"><a xlink:title=" ">
<path fill="none" stroke="#63b8ff" d="M192.16,-286.74C189.87,-273.19 185.1,-255.05 175.23,-242 162.72,-225.46 142.14,-213.45 126.52,-206.1"/>
<polygon fill="#63b8ff" stroke="#63b8ff" points="188.72,-287.41 193.55,-296.84 195.65,-286.45 188.72,-287.41"/>
</a>
</g>
</g>
<!-- Node7&#45;&gt;Node5 -->
<g id="edge12_Node000007_Node000005" class="edge">
<title>Node7&#45;&gt;Node5</title>
<g id="a_edge12_Node000007_Node000005"><a xlink:title=" ">
<path fill="none" stroke="#63b8ff" d="M197.44,-286.61C204.9,-242.76 223.25,-134.84 229.83,-96.12"/>
<polygon fill="#63b8ff" stroke="#63b8ff" points="193.95,-286.29 195.72,-296.74 200.85,-287.47 193.95,-286.29"/>
</a>
</g>
</g>
<!-- Node7&#45;&gt;Node8 -->
<g id="edge10_Node000007_Node000008" class="edge">
<title>Node7&#45;&gt;Node8</title>
<g id="a_edge10_Node000007_Node000008"><a xlink:title=" ">
<path fill="none" stroke="#63b8ff" d="M171.05,-291.7C154.84,-282.04 133.68,-269.44 119.79,-261.17"/>
<polygon fill="#63b8ff" stroke="#63b8ff" points="169.55,-294.88 179.93,-296.98 173.13,-288.86 169.55,-294.88"/>
</a>
</g>
</g>
<!-- Node8&#45;&gt;Node2 -->
<g id="edge11_Node000008_Node000002" class="edge">
<title>Node8&#45;&gt;Node2</title>
<g id="a_edge11_Node000008_Node000002"><a xlink:title=" ">
<path fill="none" stroke="#63b8ff" d="M105.23,-231.66C105.23,-222.93 105.23,-212.99 105.23,-206.09"/>
<polygon fill="#63b8ff" stroke="#63b8ff" points="101.73,-231.75 105.23,-241.75 108.73,-231.75 101.73,-231.75"/>
</a>
</g>
</g>
</g>
</svg>
